<?xml version="1.0" encoding="UTF-8" standalone="no"?>
<!-- Created with Inkscape (http://www.inkscape.org/) -->

<svg
   xmlns:dc="http://purl.org/dc/elements/1.1/"
   xmlns:cc="http://creativecommons.org/ns#"
   xmlns:rdf="http://www.w3.org/1999/02/22-rdf-syntax-ns#"
   xmlns:svg="http://www.w3.org/2000/svg"
   xmlns="http://www.w3.org/2000/svg"
   xmlns:sodipodi="http://sodipodi.sourceforge.net/DTD/sodipodi-0.dtd"
   xmlns:inkscape="http://www.inkscape.org/namespaces/inkscape"
   width="1146.5278mm"
   height="628.0293mm"
   viewBox="0 0 1146.5278 628.0293"
   version="1.1"
   id="svg8"
   inkscape:version="0.92.4 (fd57863, 2020-04-02)"
   sodipodi:docname="grass.svg">
  <defs
     id="defs2" />
  <sodipodi:namedview
     id="base"
     pagecolor="#ffffff"
     bordercolor="#666666"
     borderopacity="1.0"
     inkscape:pageopacity="0.0"
     inkscape:pageshadow="2"
     inkscape:zoom="0.0875"
     inkscape:cx="2679.6688"
     inkscape:cy="513.67931"
     inkscape:document-units="mm"
     inkscape:current-layer="layer1"
     showgrid="false"
     fit-margin-top="0"
     fit-margin-left="0"
     fit-margin-right="0"
     fit-margin-bottom="0"
     inkscape:window-width="1920"
     inkscape:window-height="1016"
     inkscape:window-x="1366"
     inkscape:window-y="27"
     inkscape:window-maximized="1" />
  <metadata
     id="metadata5">
    <rdf:RDF>
      <cc:Work
         rdf:about="">
        <dc:format>image/svg+xml</dc:format>
        <dc:type
           rdf:resource="http://purl.org/dc/dcmitype/StillImage" />
        <dc:title></dc:title>
      </cc:Work>
    </rdf:RDF>
  </metadata>
  <g
     inkscape:label="Layer 1"
     inkscape:groupmode="layer"
     id="layer1"
     transform="translate(431.89628,35.073146)">
    <path
       style="fill:#000000;stroke-width:0.35277778"
       d="m -431.87598,291.41853 c 0.014,-165.84524 0.145,-301.2298519 0.2919,-300.8546719 0.4095,1.04567 0.8098,0.0894 0.7013,-1.6752301 -0.051,-0.8278 0.026,-1.6969 0.1708,-1.93132 0.3923,-0.63472 0.5287,-4.04269 0.2278,-5.68858 -0.145,-0.79265 -0.1388,-1.44116 0.014,-1.44116 0.1525,0 0.3832,-0.51594 0.5125,-1.14653 0.2559,-1.24732 1.5355,-4.14514 1.8304,-4.14514 0.1004,0 0.091,0.23812 -0.02,0.52917 -0.1447,0.37705 0.033,0.52916 0.6189,0.52916 0.6878,0 0.7943,-0.14478 0.6524,-0.88702 -0.1353,-0.70753 -0.054,-0.84268 0.4017,-0.66781 0.3142,0.12054 0.5712,0.51971 0.5712,0.88702 0,0.76246 0.3744,0.85792 0.9819,0.25037 0.2296,-0.22962 0.5286,-0.30635 0.6644,-0.17053 0.1358,0.13582 0.059,0.4348 -0.1705,0.66442 -0.5747,0.57467 -0.5247,1.09855 0.082,0.8655 0.6572,-0.25216 1.0028,0.69706 0.5571,1.52986 -0.5446,1.01762 -0.421,1.40804 0.4169,1.31639 0.5378,-0.0588 0.8289,0.1518 0.9701,0.70185 0.111,0.43226 0.4893,1.12004 0.8406,1.52845 0.5895,0.6852 0.5957,0.80839 0.08,1.59536 -0.4484,0.68439 -0.4634,0.85281 -0.076,0.85281 0.6877,0 1.5652,-1.08398 1.7064,-2.10785 0.066,-0.4802 0.4502,-1.03685 0.8533,-1.23694 1.141,-0.56639 1.9129,-1.47574 1.9129,-2.25365 0,-0.95063 0.5325,-1.22696 1.1584,-0.6011 0.3392,0.33923 0.6275,0.39194 0.8618,0.15758 0.2344,-0.23435 0.4215,-0.005 0.5594,0.68415 0.1662,0.83072 0.391,1.03628 1.1333,1.03628 1.6051,0 1.8005,0.61218 0.7016,2.19791 -0.5454,0.78698 -0.8955,1.52697 -0.778,1.64444 0.3891,0.38908 1.3023,-0.19353 1.3051,-0.83266 0,-0.34565 0.3984,-0.81195 0.8819,-1.03621 0.777,-0.36037 0.8792,-0.32728 0.8792,0.28448 0,0.38071 -0.4726,1.12395 -1.0503,1.65156 -0.8045,0.73477 -1.0316,1.22544 -0.9701,2.0961 0.044,0.62519 0.2616,1.13704 0.4834,1.13743 0.6974,0 0.8474,1.0632 0.2998,2.1222 -0.7934,1.5342701 -0.6796,3.0611601 0.2671,3.5824201 0.4366,0.24039 0.9921,0.4444 1.2345,0.45339 0.2424,0.009 0.798,0.42605 1.2347,0.92682 1.0913,1.25152 2.7494,1.79638 3.5918,1.18036 0.5717,-0.41804 0.7372,-0.33126 1.4938,0.78366 0.6809,1.0033 0.7661,1.35587 0.4266,1.76495 -0.3361,0.40492 -0.3059,0.62957 0.1451,1.08056 0.4939,0.49389002 0.6494,0.50323002 1.1736,0.0705 0.49,-0.40453 0.6337,-0.41116 0.7602,-0.0349 0.086,0.25509002 0.5516,0.61418002 1.0351,0.79802002 0.4835,0.18379 0.9616,0.64981 1.0625,1.0355 0.1009,0.38572998 0.3236,0.70132998 0.495,0.70132998 0.1714,0 0.3117,0.30811 0.3117,0.68474 0,1.06729 0.6585,1.21465 1.3959,0.31231 0.801,-0.98016 1.5145,-0.53844 1.5145,0.93758 0,0.71579 0.1317,0.87704 0.5733,0.70199 0.3153,-0.12495 1.1272,-0.32 1.8043,-0.43346 0.677,-0.11345 1.5163,-0.56896 1.865,-1.01226 0.3487,-0.4433 0.8539,-0.72164 1.1227,-0.61852 0.7062,0.271 1.9539,-0.49417 1.9602,-1.20215998 0.01,-0.84378 0.4916,-1.51871 1.1595,-1.61675 0.3109,-0.0456 0.8506,-0.32642002 1.1995,-0.62399002 1.9773,-1.68674 9.0567,-2.67363 11.0412,-1.53921 0.4851,0.27729 1.3053,0.5098 1.8228,0.51668 1.2901,0.0173 3.7314,1.17842 5.3097,2.52571002 1.0913,0.93166 1.4016,1.04496998 1.8475,0.67487 0.8137,-0.67529 1.538,-0.19107 1.7995,1.20307998 0.27,1.43919 0.5019,1.53049 1.3913,0.54772 0.8422,-0.93063 1.175,-0.88995 1.4427,0.17639 0.2806,1.11827 0.6063,1.11531 1.2091,-0.0109 0.2628,-0.49114 0.7262,-0.87132 1.0297,-0.84483 1.1753,0.10259 2.1699,-0.51294 2.7275,-1.68796998 0.3197,-0.67381 0.8198,-1.31660002 1.1113,-1.42847002 0.7435,-0.28529 2.2454,1.64010002 2.0667,2.64943 -0.19,1.07333 0.4026,1.00962 0.82,-0.0882 0.3751,-0.98668998 1.3205,-1.17569998 1.6454,-0.32896998 0.2464,0.64201998 -0.5273,2.26401998 -1.0877,2.28031998 -0.3879,0.0113 -1.7872,1.71609 -1.5625,1.9037 0.068,0.0564 0.5504,0.2051 1.0729,0.33034 1.0755,0.25777 2.4729,-0.77971 2.9052,-2.15692 0.1371,-0.43656 0.4581,-0.79375 0.7135,-0.79375 0.2553,0 0.5512,-0.33253 0.6574,-0.73893 0.1614,-0.61683 0.3691,-0.70029998 1.2574,-0.50518 0.9815,0.21555 1.0587,0.16239 0.9945,-0.68413998 -0.051,-0.6701 0.1984,-1.08126 0.9236,-1.52326002 0.9496,-0.57873 1.0155,-0.57559 1.4934,0.0713 0.4268,0.57754 0.6325,0.61631 1.4045,0.26459 0.4974,-0.22666 1.1181,-0.41212 1.3793,-0.41212 0.6716,0 0.967,0.98517 0.5366,1.78943 -0.4294,0.80236 0.2813,0.96647 1.0351,0.23904 0.3679,-0.355 0.562,-0.2862 0.9955,0.35278 0.2962,0.43657 0.7679,0.79375 1.0482,0.79375 0.3477,0 0.4741,0.30805 0.3979,0.97014 -0.1383,1.20223 1.4346,3.03946 2.3135,2.70221 0.3154,-0.12104 0.5735,-0.36181 0.5735,-0.53509 0,-0.17325 0.2381,-0.31504 0.5292,-0.31504 0.3,0 0.5291,-0.31637 0.5291,-0.73074 0,-0.40192 0.2484,-0.9791 0.5519,-1.28259 0.3901,-0.39014 0.4418,-0.66188 0.1764,-0.92731 -0.5702,-0.5702 -0.4865,-2.72426 0.097,-2.50028 0.3182,0.12213 0.6462,-0.3713 1.0041,-1.51038 0.3221,-1.02525 0.8217,-1.82503 1.2682,-2.03006 0.4052,-0.18609 0.9024,-0.70203 1.105,-1.14653 0.2025,-0.44454 0.6067,-0.80822 0.8982,-0.80822 0.7108,0 1.0321,-1.44681 0.7849,-3.53426 -0.164,-1.3843801 -0.067,-1.8843701 0.5091,-2.6163501 0.9857,-1.25313 2.0717,-1.20971 2.0717,0.0828 0,0.54327 0.1866,1.17432 0.4146,1.40236 0.2488,0.24878 0.3795,1.2734601 0.3269,2.5624401 -0.099,2.42594 0.5618,3.86686 1.7733,3.86686 0.8955,0 2.6005,1.38783 2.6005,2.11667 0,0.38463 0.325,0.5031 1.1898,0.43374 0.6545,-0.0525 1.3934,0.0734 1.642,0.27979 0.2664,0.22108 0.8644,0.26709 1.456,0.11204 0.5521,-0.14474 1.2764,-0.22186 1.6094,-0.17141 0.3974,0.0602 0.6849,-0.22434 0.8364,-0.82773 0.1598,-0.63683 0.5306,-0.97941 1.2063,-1.11456 0.5815,-0.11631 1.1383,-0.55228 1.3785,-1.0795 0.2922,-0.64142 0.5972,-0.83362 1.11,-0.69953 0.4874,0.12746 0.8806,-0.0798 1.2653,-0.66703 0.3071,-0.46856 0.8459,-0.85192 1.1976,-0.85192 0.6828,0 2.8073,2.33003 2.8073,3.07897 0,0.6229 0.6835,0.56388 0.9307,-0.0804 0.2954,-0.76962 1.4253,-0.64816 1.6409,0.17639 0.1218,0.46542 0.4812,0.70555 1.0563,0.70555 1.0842,0 1.7007,0.7044 1.5797,1.80506 -0.074,0.67014 0.075,0.84258 0.7312,0.8496 0.4529,0.005 0.9767,0.28264 1.164,0.61736 0.1873,0.33468 0.5708,0.60854 0.8522,0.60854 0.6061,0 0.5923,-0.10001 0.1835,1.32524 -0.3693,1.28764 -0.3911,1.26605 0.8148,0.80758 0.7922,-0.3012 0.8627,-0.47745 0.67,-1.67569 -0.1185,-0.7365 -0.457,-1.51747 -0.7522,-1.73553 -0.4632,-0.34205 -0.3975,-0.5256 0.4787,-1.33762 0.9882,-0.91592 1,-0.96746 0.4368,-1.92081 -0.5443,-0.92135 -0.5377,-1.04711 0.1108,-2.11342 0.6153,-1.01184 0.7728,-1.08917 1.4646,-0.71896 0.6067,0.3247 0.8075,0.31761 0.9242,-0.0328 0.082,-0.2461 0.4469,-0.74514 0.8107,-1.10892 0.7173,-0.71737 3.0349,-0.90615 4.1058,-0.33443 0.3369,0.17988 0.8877,0.41197 1.224,0.51579 0.3755,0.11596 0.5311,0.39815 0.4032,0.73131 -0.1145,0.29842 -0.034,0.54254 0.1782,0.54254 0.2125,0 0.3631,0.27781 0.3346,0.61736 -0.094,1.11922 0.055,1.85208 0.3766,1.85208 0.4967,0 2.5057,-1.87409 2.5057,-2.3375 0,-0.66457 3.5901,-4.3652801 4.2347,-4.3652801 0.3217,0 0.7768,0.3583901 1.0112,0.7964001 0.2344,0.43804 0.9782,1.17464 1.6529,1.63696 1.1433,0.78341 1.2701,0.80119 1.866,0.2619 1.3222,-1.19659 4.0238,-0.41945 6.2376,1.79437 0.674,0.67395 1.2254,1.35237 1.2254,1.5076 0,0.15522 0.5794,0.86166 1.2876,1.56986 0.8993,0.8993 1.3994,1.17591 1.6581,0.91722 0.4419,-0.44189 2.1169,-0.50331 1.8477,-0.0677 -0.1029,0.16647 0.364,0.59944 1.0375,0.96216 0.6736,0.36273 1.2246,0.77491 1.2246,0.91599000371 0,0.36709999629 1.7349,2.05249999629 2.1127,2.05249999629 0.1742,0 0.7127,0.66396 1.1967,1.47549 0.9525,1.59745 0.8299,2.38047 -0.5446,3.47712 -0.4876,0.38897 -0.6009,0.739 -0.3997,1.2347205 0.1544,0.38051 0.4425,0.71928 0.6401,0.75283 0.1977,0.0335 0.793,0.16979 1.3229,0.30282 0.8887,0.22306 0.9636,0.15988 0.9636,-0.81343 0,-1.5453505 2.7315,-5.6383405 3.9441,-5.9101205 0.5201,-0.11656 1.3578,-0.75237 1.8616,-1.41298 1.0374,-1.36003 2.9247,-2.04107 5.5357,-1.99761 1.2994,0.0215 1.6746,-0.1052 1.8068,-0.61076 0.1029,-0.39321 0.5935,-0.70069 1.2788,-0.80123 1.2006,-0.17621 1.1417,-0.26871 1.7284,2.71565 0.2201,1.11918 0.4516,1.43612 1.1192,1.532 0.8573,0.12316 2.3728,0.96489 3.0101,1.67189 0.194,0.21523 0.9084,0.60074 1.5875,0.85668 1.6323,0.61521 2.3574,1.26574 2.6325,2.36192 0.2368,0.94336 1.4756,2.1886705 2.1974,2.2088105 0.8568,0.024 0.8388,-0.73952 -0.042,-1.7864305 -0.499,-0.59298 -0.9072,-1.30909 -0.9072,-1.59134 0,-0.28226 -0.2382,-0.60456 -0.5292,-0.71625 -0.2911,-0.11169 -0.5292,-0.59231 -0.5292,-1.06807 0,-0.47575 -0.1216,-0.78983 -0.2703,-0.69793 -0.1487,0.0919 -0.4489,-0.21118 -0.6671,-0.67349 -0.3116,-0.66033 -0.2903,-0.92886 0.099,-1.25233 0.3919,-0.32522 0.6437,-0.24158 1.1985,0.39811 0.741,0.8544 0.9362,0.85274 1.0589,-0.009 0.2029,-1.42525 -0.03,-2.11666 -0.7138,-2.11666 -0.8582,0 -0.884,-0.39568 -0.1218,-1.86962 1.1807,-2.28318 1.9955,-3.11817 2.8369,-2.90699 0.6083,0.15264 1.1823,-0.18003 2.4779,-1.43606 0.9274,-0.89912 2.2152,-1.86108 2.8618,-2.13769 0.9977,-0.42675 1.1079,-0.58455 0.7282,-1.04207 -0.3626,-0.4369101 -0.3585,-0.5940801 0.022,-0.8289901 0.6316,-0.39031 2.4911,0.29161 2.7413,1.0053101 0.1105,0.31517 0.5142,0.92146 0.897,1.34726 0.5098,0.56695 0.6314,1.03208 0.4544,1.73732 -0.2061,0.82145 -0.1652,0.89962 0.2783,0.53157 0.721,-0.59838 1.0233,0.0314 0.5777,1.20353 -0.4876,1.28249 0.1068,2.08972 1.0877,1.47712 0.5459,-0.34089 0.7851,-0.30166 1.2929,0.21216 0.5928,0.59979 0.5931,0.64745 0.01,0.98076 -0.9049,0.5135 -0.753,1.02083 0.3057,1.02083 0.744,0 0.8879,-0.13455 0.7418,-0.69328 -0.1223,-0.4676 0.031,-0.76059 0.47,-0.9 0.3852,-0.12228 0.5717,-0.41434 0.4563,-0.71487 -0.1142,-0.29782 0.076,-0.60456 0.459,-0.74112 0.3597,-0.12813 0.9218,-0.46253 1.2491,-0.74309 0.7791,-0.66777 1.4534,-0.22408 1.253,0.82444 -0.095,0.49791 -0.017,0.74256 0.1946,0.61158 0.222,-0.1372 0.2668,0.12601 0.1207,0.70831 -0.1997,0.79569 -0.1,0.96004 0.709,1.16296 0.9526,0.23911 1.8901,-0.49572 1.8901,-1.48149 0,-0.23131 0.331,-0.50715 0.7356,-0.61295 0.6766,-0.17695 0.7216,-0.38213 0.561,-2.55647 -0.1419,-1.91975 -0.044,-2.59677 0.5206,-3.60204 1.0215,-1.8187101 1.9496,-2.4330701 3.6133,-2.3918001 0.9101,0.0226 1.6101,-0.16422 1.8829,-0.50253 0.3592,-0.44535 0.4886,-0.456 0.7486,-0.0616 0.2478,0.37603 0.4358,0.30343 0.8886,-0.34307 0.8174,-1.16685 0.7641,-1.84768 -0.108,-1.38095 -0.9224,0.49368 -1.0959,0.46044 -0.8563,-0.16397 0.1117,-0.29104 0.5816,-0.52917 1.0443,-0.52917 0.4626,0 1.0395,-0.3175 1.2818,-0.70555 0.6054,-0.96937 1.3293,-0.88625 1.3293,0.15261 0,1.15601 1.2178,1.54269 2.1634,0.68696 0.6026,-0.54529 0.7479,-0.56226 1.0277,-0.11998 0.4412,0.69758 0.4202,1.39707 -0.042,1.39707 -0.2083,0 -0.3273,0.25873 -0.2646,0.57496 0.073,0.36844 0.5345,0.60784 1.2844,0.66643 0.9715,0.0759 1.406,-0.15653 2.5587,-1.36874 0.9903,-1.04151 1.3385,-1.67615 1.2144,-2.21354 -0.098,-0.42594 0.054,-0.94301 0.3516,-1.18971 0.2892,-0.23999 0.5258,-0.63362 0.5258,-0.87475 0,-0.24112 0.3175,-0.84201 0.7056,-1.33537 0.8317,-1.05734 0.9038,-1.66761 0.1972,-1.66761 -1.4915,0 -0.7053,-2.24815 1.4022,-4.00978 0.981,-0.82 1.5776,-1.60994 1.581,-2.09321 0.01,-1.35713 0.5428,-1.76029 2.4587,-1.85815 2.171,-0.11091 2.4271,-0.2892 1.6494,-1.1485 -0.3222,-0.35602 -0.5858,-0.88801 -0.5858,-1.18223 0,-0.58388 1.0789,-1.70257 1.642,-1.70257 0.1934,0 0.7101,-0.38146 1.1481,-0.84769 1.1456,-1.21949 3.0896,-1.31022 7.4405,-0.34735 7.6456,1.69206 8.6617,2.30537 11.1564,6.7341 0.6778,1.20322 1.5195,2.27884 1.8706,2.39025 0.8623,0.27369 1.9555,1.52485 1.9613,2.24483 0,0.41864 0.3742,0.61634 1.3009,0.69346 1.6871,0.14044 4.2985,2.7819 3.9909,4.0368 -0.1319,0.53781 0.071,1.07893 0.6298,1.67615 0.624,0.66753 0.8159,1.26199 0.7894,2.44528 -0.019,0.85986 -0.1866,1.60002 -0.372,1.64486 -0.1854,0.0448 -0.7736,0.17777 -1.3072,0.29545 -0.6598,0.14552 -0.9701,0.43748 -0.9701,0.91281 0,0.69512 -0.3771,0.90971 -0.8201,0.46669 -0.1277,-0.12767 -0.073,-0.42411 0.1219,-0.65874 0.2437,-0.29361 0.1994,-0.55499 -0.142,-0.83837 -0.7765,-0.64442 -1.7245,0.49265 -1.4506,1.73979 0.1638,0.7456701 0.02,1.1691801 -0.5989,1.7618401 l -0.8145,0.78021 1.6712,-0.23891 c 1.4579,-0.20842 1.9305,-0.0979 3.7041,0.86579 2.1657,1.1768 3.2472,2.25686 3.2599,3.25572 0,0.33792 0.3254,0.81266 0.7134,1.05501 0.9009,0.56258 0.8947,1.25886 -0.02,2.23231 -0.5296,0.56367 -0.7292,1.25476 -0.7393,2.55955 -0.01,0.98305 0.09,1.95548 0.2171,2.16097 0.1309,0.21181 -0.053,0.37363 -0.4249,0.37363 -0.8316,0 -1.5025,0.6616 -1.5025,1.48166 0,0.34925 -0.1657,0.635 -0.3683,0.635 -0.2025,0 -0.3216,-0.27206 -0.2645,-0.60455 0.057,-0.33253 -0.1466,-0.65634 -0.4523,-0.7196 -0.4178,-0.0865 -0.5434,0.15297 -0.5055,0.96337 0.028,0.59309 0.2382,1.26615 0.4677,1.49571 0.2295,0.22951 0.4173,0.60483 0.4173,0.8340305 0,0.2292 0.549,0.83549 1.22,1.3473 1.7674,1.3480004 2.3127,3.9377404 1.1433,5.4294604 -0.4754,0.60642 1.7915,2.99879 2.633,2.77872 0.3449,-0.0902 1.0519,0.32375 1.7065,0.99918 0.6815,0.70315 1.3566,1.09064 1.73,0.99303 0.3368,-0.0881 0.8191,0.089 1.0719,0.39356 0.2527,0.30452 0.5805,0.55368 0.7285,0.55368 0.3067,0 1.4755,-3.34373 1.5413,-4.40972 0.032,-0.51047 0.3362,-0.73755 1.1019,-0.8213 0.6205,-0.0678 1.4648,-0.55675 2.0407,-1.1817 0.8012,-0.86928 1.1591,-1.02175 1.9403,-0.82631 0.5269,0.1318 1.0787,0.45409 1.2263,0.71614 0.1476,0.26208 1.3793,1.2151 2.7372,2.11783 3.2513,2.16143 3.9966,3.52569 2.3743,4.34562 -0.7092,0.35842 -0.7186,0.39236 -0.088,0.31849 0.533,-0.0624 0.7328,0.15462 0.8172,0.88748 0.088,0.76793 0.2942,0.97014 0.9876,0.97014 0.992,0 2.9577,-0.91874 2.9577,-1.38243 0,-0.16828 -0.2619,-0.40647 -0.582,-0.52931 -0.5096,-0.19554 -0.4767,-0.33574 0.2645,-1.12677 0.4657,-0.49692 1.2832,-1.16198 1.8168,-1.478 0.5336,-0.31598 0.9701,-0.76941 0.9701,-1.0076 0,-0.2382 0.2947,-0.64054 0.655,-0.89408 0.3602,-0.25354 0.7678,-0.81816 0.9057,-1.25473 0.1379,-0.43656 0.4173,-0.79375 0.6209,-0.79375 0.2036,0 0.2875,-0.31619 0.1864,-0.70266 -0.1362,-0.52102 0.1951,-0.99462 1.2818,-1.83194 0.806,-0.6211 2.0079,-1.65428 2.6708,-2.2959504 0.663,-0.64166 1.3833,-1.16667 1.6008,-1.16667 0.2176,0 0.9452,0.4698 1.6169,1.04401 0.6718,0.5741804 1.4138,1.0504304 1.6488,1.0583404 0.2351,0.008 0.5984,0.64932 0.8074,1.42543 0.209,0.77611 0.5007,1.41111 0.6483,1.41111 0.1475,0 0.463398,0.51594 0.701898,1.14653 0.2386,0.63059 0.8753,1.66006 1.415,2.28769 0.9154,1.06451 1.0544,1.11358 2.069,0.73064 0.9759,-0.36837 1.2004,-0.3156 2.1867,0.51442 l 1.0992,0.92491 2.4663,-2.43229 c 1.3565,-1.33777 2.4663,-2.53376 2.4663,-2.65783 0,-0.5328 2.9853,-4.4203404 3.8089,-4.9599204 0.8536,-0.55933 0.9338,-0.55523 1.4746,0.0751 0.3145,0.36661 0.8816,0.84134 1.2602,1.0549504 0.3785,0.21357 0.7382,0.80535 0.7992,1.31501 0.067,0.56289 0.552,1.23472 1.2347,1.71133 0.6181,0.43155 1.2405,0.95101 1.383,1.15439 0.4551,0.64922 0.2958,1.95728 -0.2384,1.95728 -0.7965,0 -1.0023,0.65631 -0.3961,1.26263 0.3035,0.30342 0.5517,0.75992 0.5517,1.01448 0,0.46366 1.0411,0.88403 2.2116,0.89306 0.4902,0.004 0.5766,-0.18443 0.4027,-0.87711 -0.129,-0.51386 -0.069,-0.88195 0.1426,-0.88195 0.2002,0 0.862,-0.41903 1.4707,-0.93122 0.8282,-0.69688 1.2078,-0.83002 1.5087,-0.52917 0.2212,0.22116 0.658,0.40206 0.9708,0.40206 1.0786,0 3.4131,-1.37622 4.3064,-2.53866 2.2234,-2.89341 3.0172,-3.61174 3.5252,-3.19013 0.2701,0.22419 0.8453,0.31499 1.2781,0.20179 0.4964,-0.12979 1.0432,0.0261 1.4809,0.42224 0.6661,0.60272 0.726,0.6013 1.4877,-0.0349 1.5028,-1.25501 3.0879,-3.1045104 2.9993,-3.4995209 -0.1731,-0.77107 1.7681,-2.64971 2.7378,-2.64971 1.1143,0 2.9942,1.74177 2.9942,2.77428 0,0.8163205 0.5495,1.2913405 0.8784,0.7592405 0.3639,-0.58885 0.8855,-0.40668 0.8855,0.30928 0,0.36732 0.2381,0.75918 0.5291,0.87087 0.2911,0.1116904 0.5292,0.5061304 0.5292,0.8765104 0,0.37038 0.2366,0.86978 0.5258,1.10977 0.3389,0.28131 0.4485,0.74397 0.3084,1.30221 -0.2059,0.82053 -0.1545,0.85411 0.9818,0.64093 1.0365,-0.19445 1.33,-0.0781 2.1637,0.85763 0.5306,0.59542 1.1222,1.08261 1.3147,1.08261 0.1925,0 0.3501,0.635 0.3501,1.41111 0,0.77611 0.1457,1.41111 0.3239,1.41111 0.1781,0 0.5545,0.0885 0.8364,0.19667 0.9002,0.34544 1.0252,-0.90716 0.1634,-1.63854 -0.748,-0.63479 -0.7583,-0.70249 -0.1763,-1.1551 0.7396,-0.5751 0.5087,-2.60618 -0.3765,-3.31206 -0.4998,-0.39853 -0.4976,-0.44097 0.023,-0.44097 0.8965,0 1.1009,-0.68192 0.4275,-1.426 -0.5668,-0.62635 -0.5686,-0.6925 -0.024,-0.9014904 0.3642,-0.13977 0.5132,-0.46016 0.3917,-0.84268 -0.2669,-0.84123 0.3963,-2.4742705 1.0049,-2.4742705 0.2721,0 0.6924,-0.23813 0.9339,-0.52917 0.6174,-0.7439 1.2526,-0.66234 2.7465,0.35278 0.7138,0.48507 1.6976,0.88438 2.1861,0.88734 1.1504,0.007 1.7034,0.3761 2.3073,1.5399505 0.5902,1.1377704 0.3855,1.8227304 -0.6497,2.1738104 -0.7151,0.24257 -0.6981,0.27178 0.2412,0.4149 1.516,0.23093 2.6691,1.74318 2.6825,3.51805 0.01,0.81315 -0.1502,1.57818 -0.3474,1.70007 -0.6891,0.42583 0.035,0.8878 0.7722,0.49297 0.3981,-0.21301 1.1425,-0.30625 1.6543,-0.20719 0.7587,0.14683 1.1731,-0.0913 2.2435,-1.28933 0.7221,-0.80821 1.3174,-1.58852 1.3229,-1.73404 0.023,-0.59493 1.4144,-0.20807 2.0196,0.56134 0.3573,0.45423 1.0012,1.01402 1.4308,1.24393 0.4296,0.2299 1.1954,1.29391 1.7018,2.36449 0.7392,1.56238 1.1247,1.9872 1.9537,2.153 0.568,0.1136 1.1182,0.34481 1.2226,0.51379 0.2863,0.4633 1.4758,0.36851 1.6785,-0.13378 0.1357,-0.33641 0.1845,-0.33044 0.2058,0.025 0.034,0.56857 1.0468,1.631 1.307,1.37089 0.103,-0.10297 0.4702,-0.71719 0.8161,-1.36493 0.6536,-1.22385 2.1061998,-1.74889 2.9530998,-1.0674 0.6736,0.54198 1.8869,-0.13952 2.2858,-1.284 0.5086,-1.45877 1.662,-1.76047 2.7658,-0.72348 1.0293,0.96693 1.9626,0.61433 2.24719997,-0.84899 0.1768,-0.90872 2.05490003,-3.42742 2.55570003,-3.42742 0.1466,0 0.2666,0.23813 0.2666,0.52917 0,0.88187 1.9288,0.64915 2.8733,-0.34667 0.457,-0.48172 1.0788,-0.8786 1.3818,-0.88195 0.5572,-0.006 2.0949,1.78248 2.0949,2.43678 0,0.19512 0.4435,0.87626 0.9856,1.51359 1.3184002,1.55004 2.1894002,2.96672 2.1894002,3.56115 0,0.2678 0.3097,0.76719 0.6882,1.10977 0.6721,0.60822 0.6938,0.58106 0.9245,-1.15866 0.1394,-1.05036 0.4453,-1.86168 0.7455,-1.97686 0.28,-0.10746 0.4714,-0.47428 0.4252,-0.81517 -0.1194,-0.88081 1.1354,-2.84053 1.9561,-3.05516 0.3805,-0.0995 0.8784,-0.0261 1.1065,0.16327 0.4474,0.3713 1.2501,-0.58992 1.7117,-2.04978 0.3651,-1.15457 1.2561,-1.50651 2.8722,-1.13457 1.1285,0.25964 1.4695,0.21138 1.8231,-0.25813 0.2617,-0.34741 0.31,-0.72958 0.1212,-0.95924 -0.1726,-0.2099404 -0.4222,-1.1102204 -0.5547,-2.0006409 -0.1855,-1.24608 -0.1118,-1.74812 0.3197,-2.17967 0.3084,-0.3084 0.5608,-0.73081 0.5608,-0.9387 0,-0.2079 0.2186,-0.37797 0.4859,-0.37797 0.2673,0 0.6836,-0.23813 0.9252,-0.52917 1.1749,-1.41569 3.299,-0.0472 4.1987,2.7051 0.2951,0.90255 1.0132,1.7396205 2.3743,2.7672305 l 1.9513,1.4732304 0.9092,-1.0974904 c 0.6203,-0.74877 1.1114,-1.03336 1.5454,-0.8956 0.3498,0.11106 0.9728,0.0215 1.3843,-0.19854 0.5995,-0.32085 0.8779,-0.28307 1.4007,0.19008 0.4563,0.41289 0.9646,0.52197 1.6898,0.36269 0.7622,-0.1674 1.0931,-0.0827 1.2474,0.31954 0.2664,0.6941304 0.8915,0.6923704 2.2921,-0.006 1.1926,-0.59496 2.2826,-0.43733 3.3283,0.4813304 0.8605,0.75594 1.2504,0.24007 1.3816,-1.8281304 0.099,-1.5635405 0.2244,-1.7857205 1.3441,-2.3852005 0.6791,-0.36361 1.2377,-0.85827 1.2414,-1.09929 0.015,-0.96453 1.3253,-3.13605 2.0615,-3.41598 0.4307,-0.16372 0.9944,-0.55234 1.2527,-0.8636 0.7193,-0.86674 2.9312,-0.73402 3.797,0.22782 0.393,0.43657 0.8125,1.07157 0.9324,1.41111 0.1198,0.33955 0.5157,0.61737 0.8798,0.61737 0.9334,0 1.6956,0.97811 2.1804,2.79795 0.229,0.85979 0.7994,2.0654 1.2675,2.6791305 0.4682,0.61377 0.8512,1.28997 0.8512,1.50277 0,0.4928304 0.2635,0.6413104 1.6757,0.9442004 0.9742,0.20892 1.1465,0.1462 1.1465,-0.41744 0,-0.3648404 0.7112,-1.3696604 1.5804,-2.2329009 0.8692,-0.86325 1.5836,-1.75119 1.5875,-1.9732 0,-0.22203 0.4676,-0.89672 1.0306,-1.4993 1.1179,-1.19676 2.5584,-1.4447 3.4153,-0.58787 0.61,0.61002 2.2025,3.71747 2.3824,4.6489105 0.071,0.36526 0.2392,0.91753 0.3747,1.22727 0.1355,0.3097404 0.035,1.1828704 -0.2222,1.9402804 -0.4191,1.23169 -0.4022,1.44233 0.1594,1.9945 0.8676,0.85295 0.9957,0.78003 0.7538,-0.42926 -0.1443,-0.72154 0.018,-1.43256 0.5238,-2.28917 0.703,-1.1914004 0.7083,-1.2865804 0.13,-2.3115104 -0.4225,-0.7486305 -0.4864,-1.1461705 -0.2133,-1.3267605 0.2144,-0.14185 0.5765,-0.81351 0.8046,-1.4926 0.5676,-1.68935 1.1049,-2.31024 2.2451,-2.59412 0.7386,-0.1839 0.9701,-0.11363 0.9701,0.29432 0,0.29475 0.1688,0.53591 0.375,0.53591 0.2062,0 0.3252,-0.35546 0.2646,-0.78991 -0.072,-0.51223 0.076,-0.79421 0.4188,-0.80225 0.291,-0.007 0.5105,-0.26599 0.4877,-0.57598 -0.028,-0.38432 0.1681,-0.50878 0.6173,-0.3913 0.8194,0.21428 0.9404,-1.1376 0.1297,-1.44868 -0.6696,-0.25693 -0.696,-1.28355 -0.033,-1.28355 0.3233,0 0.4315,-0.24705 0.3106,-0.70922 -0.142,-0.54325 0.051,-0.7922 0.8268,-1.06373 0.5568,-0.19498 1.3698,-0.87832 1.8068,-1.51854 0.4369,-0.64018 1.2412,-1.59205 1.7873,-2.11522 0.9285,-0.88956 1.0726,-0.92237 2.224,-0.50627 1.4837,0.53615 3.9996,3.21719 3.715,3.95884 -0.2526,0.65825 0.4132,1.09869 0.91,0.60194 0.4489,-0.44891 2.2581,-0.14312 3.357402,0.56748 0.4578,0.29595 0.7937,0.86914 0.7937,1.35446 0,0.69966 -0.1782,0.84137 -1.0583,0.84137 -0.582102,0 -1.058402,-0.15875 -1.058402,-0.35278 0,-0.19402 -0.1587,-0.35277 -0.3527,-0.35277 -0.1941,0 -0.3528,0.39687 -0.3528,0.88194 0,0.62759 0.191,0.88194 0.6624,0.88194 0.3642,0 0.865902,0.24536 1.114802,0.54522 0.2489,0.29986 0.6734,0.46045 0.9435,0.35684 0.27,-0.10365 0.4083,-0.0547 0.3073,0.10872 -0.101,0.16345 0.2082,0.47572 0.6872,0.69395 0.9402,0.42838 1.145,1.26312 0.4215,1.71733 -0.7289,0.45751 -1.6871,2.16848 -1.336,2.38551 0.1779,0.10993 0.4249,-0.11952 0.5488,-0.50997 0.2588,-0.81541 1.3226,-1.16611 3.0399,-1.00207 0.9983,0.0954 1.1953,0.2551 1.1953,0.96905 0,0.64576 0.2515,0.92251 1.0281,1.13153 1.3067,0.35165 1.6726,0.11878 1.4164,-0.90166 -0.1606,-0.64019 -0.03,-0.85887 0.6161,-1.03191 1.8257,-0.48888 2.7237,-0.26483 3.2844,0.8195 0.4617,0.89274 0.6929,1.01858 1.5545,0.84624 0.6529,-0.13056 1.3395,0.012 1.9343,0.40171 1.3382,0.8768705 3.7471,4.7214009 3.7535,5.9907009 0.01,1.26665 0.2597,1.69848 1.3249,2.25947 1.1623,0.61221 1.6015,0.16058 1.3885,-1.42773 -0.1322,-0.98541 -0.023,-1.53441 0.3888,-1.94574 0.3152,-0.31514 0.5783,-0.90714 0.5848,-1.31555 0.01,-0.60078 0.2644,-0.76341 1.3347,-0.85203 1.2539,-0.10375 1.9302,-0.7724404 0.7814,-0.7724404 -0.4323,0 -0.4654,-0.14242 -0.164,-0.70555 0.4321,-0.80744 1.694,-0.94548 1.9739,-0.21597 0.1033,0.26927 0.6143,0.57675 1.1354,0.68333 0.5212,0.10657 1.8136,0.9975104 2.8721,1.9798904 1.1821,1.0971 2.2453,1.78608 2.7562,1.78608 0.4575,0 1.7045,0.42732 2.7711,0.94961 1.6442,0.80503 1.9099,1.06694 1.7459,1.7206 -0.1598,0.63662 -0.01,0.80779 0.8606,0.98185 0.5799,0.11599 1.0542,0.43596 1.0542,0.71109 0,0.27514 0.2647,0.60181 0.5882,0.72595 0.4088,0.15688 0.4758,0.33807 0.2197,0.59418 -0.2561,0.25609 -0.1127,0.62421 0.4701,1.2071 0.6173,0.61726 0.8417,1.23871 0.8499,2.35398 0.01,1.25864 0.084,1.42202 0.441,0.96432 0.2364,-0.30307 0.7076,-0.65525 1.0471,-0.78267 0.3396,-0.12739 0.6174,-0.43656 0.6174,-0.68704 0,-0.25043 0.3175,-0.65366 0.7055,-0.89598 0.3881,-0.24236 0.7056,-0.67621 0.7056,-0.96411 0,-0.2879 0.4762,-0.94777 1.0583,-1.46642 0.5821,-0.51862 1.0583,-1.15182 1.0583,-1.40709 0,-0.46832 1.5653,-1.05202 2.3813,-0.88805 0.273,0.0549 0.441,-0.30702 0.441,-0.94993 0,-0.72016 0.3856,-1.42412 1.2579,-2.29647 0.866,-0.86597 1.2676,-1.59544 1.2888,-2.34093 0.033,-1.1530904 0.4291,-1.6654604 0.8107,-1.0480704 0.1271,0.2057104 0.057,0.5841004 -0.1564,0.8408804 -0.286,0.34456 -0.2623,0.57083 0.09,0.86343 0.2628,0.21808 0.5703,0.30406 0.6833,0.19099 0.3268,-0.32685 1.6696,0.21629 1.6722,0.67642 0,0.22944 0.5403,0.78341 1.1977,1.23105 0.9452,0.64354 1.2429,1.13086 1.4225,2.329 0.1671,1.11415 0.4569,1.63806 1.0949,1.97951 1.0228,0.54741 1.2224,0.41134 1.3764,-0.93835 0.076,-0.67028 0.3054,-0.99279 0.6818,-0.96065 0.3117,0.0265 0.4814,-0.0897 0.377,-0.25859 -0.6366,-1.03007 1.4255,-4.90506 2.6103,-4.90506 0.5035,0 3.2315,2.61239 3.2315,3.09454 0,0.23826 0.1587,0.43324 0.3528,0.43324 0.194,0 0.3527,0.56388 0.3527,1.25307 0,1.07512 0.1503,1.30545 1.0584,1.622 0.7601,0.26501 1.0583,0.59641 1.0583,1.17634 0,0.64029 0.2373,0.84314 1.1465,0.98016 0.6306,0.095 1.1995,0.0335 1.2641,-0.13635 0.065,-0.17001 0.3426,-0.30911 0.6174,-0.30911 0.2992,0 0.4998,-0.35743 0.4998,-0.89069 0,-0.62544 0.2626,-0.99049 0.8819,-1.22597 0.4851,-0.18444 0.882,-0.57736 0.882,-0.8732 0,-0.29587 0.1037,-0.53791 0.2305,-0.53791 0.3329,0 2.8543,2.78408 3.0991,3.4219 0.1363,0.35522 0.4712,0.46955 0.9832,0.33564 0.427,-0.11166 1.0204,0.008 1.3186,0.2667 0.911,0.7893 2.3537,0.87714 2.8604,0.17413 0.334,-0.46334 0.616,-0.54109 1.0737,-0.29609 0.5535,0.29623 0.601,0.18874 0.438,-0.99127 l -0.1829,-1.32351 0.7352,0.88194 c 0.4043,0.48507 0.8313,1.23913 0.9487,1.67569 0.3393,1.26097 0.9319,0.94488 0.6485,-0.34586 -0.2268,-1.03226 -0.1954,-1.094 0.3332,-0.65528 0.7292,0.60515 0.8831,0.45226 1.0636,-1.05678 0.092,-0.76864 -0.056,-1.42893 -0.4074,-1.82263 -0.3103,-0.34721 -0.3826,-0.61736 -0.1651,-0.61736 0.2126,0 0.4847,0.15875 0.6046,0.35278 0.371,0.60018 0.882,0.38936 0.882,-0.36386 0,-0.39412 0.2321,-0.80567 0.5157,-0.91454 0.2837,-0.10883 0.6127,-0.50338 0.7312,-0.87679 0.1185,-0.37338 0.847,-1.00105 1.6189,-1.39485 1.22,-0.62237 1.5595,-0.65956 2.597,-0.28438 0.9784,0.3538 1.3011,0.34223 1.7909,-0.0642 0.5293,-0.43924 0.7059,-0.36586 1.5482,0.64308 0.523,0.62639 1.0799,1.13891 1.2377,1.13891 0.1578,0 0.1889,-0.71438 0.069,-1.5875 -0.2002,-1.46025 0.1748,-2.1844704 0.5936,-1.14653 0.098,0.24254 0.1904,0.097 0.2058,-0.32339 0.015,-0.4203704 -0.1269,-0.8172504 -0.316,-0.8819404 -0.5744,-0.19647 0.03,-1.7050905 0.6831,-1.7050905 0.9417,0 1.8989,-1.26103 1.6576,-2.18376 -0.2258,-0.8636 0.9151,-2.40235 1.7812,-2.40235 0.8435,0 2.2191,1.11662 2.2191,1.80122 0,0.3683 0.5456,1.01515 1.2304,1.45873 0.9106,0.58988 1.2315,1.04909 1.2347,1.76714 0,0.5335705 -0.1544,0.9701405 -0.3484,0.9701405 -0.194,0 -0.3528,0.3175 -0.3528,0.70555 0,0.3919704 -0.2352,0.7055604 -0.5291,0.7055604 -0.3643,0 -0.5255,0.35736 -0.5175,1.14652 l 0.012,1.14653 0.684,-0.82066 c 0.6872,-0.82452 1.4093,-0.77594 1.4093,0.0948 0,0.25696 0.3175,0.55022 0.7055,0.65168 0.5157,0.13487 0.70557,0.48123 0.70557,1.28697 0,1.27177 0.95063,1.89057 1.47232,0.95839 0.41487,-0.74132 2.17427,-0.76147 2.77985,-0.0318 0.30964,0.3731 0.75149,0.47816 1.36412,0.32442 1.31484,-0.33003 1.79204,-0.83841 1.79204,-1.90927 0,-0.52063 0.36202,-1.43725 0.80448,-2.03698 0.79033,-1.07124 0.82853,-1.08211 2.17424,-0.61947 1.35015,0.46415 2.98108,2.03531 3.00581,2.8957 0.0229,0.79499 1.08073,0.46144 1.42723,-0.45 0.18634,-0.49004 0.61895,-0.99709 0.96142,-1.12681 0.95808,-0.36283 1.57054,-1.07484 1.14879,-1.33547 -0.40506,-0.25037 -0.13557,-0.8800804 0.37663,-0.8800804 0.18259,0 0.33305,0.1984404 0.33436,0.4409704 0.004,0.58554 2.15318,2.02904 3.01805,2.02629 0.37602,0 1.11329,-0.22627 1.63833,-0.50017 0.52504,-0.27393 1.31879,-0.40756 1.76389,-0.29697 1.24217,0.30865 2.74938,1.48453 2.75103,2.14627 0,0.32632 0.39769,1.37431 0.88195,2.32882 0.97021,1.91238 1.11287,3.36148 0.43949,4.46441 -0.37123,0.60801 -0.34237,0.79544 0.18253,1.18508 0.35172,0.26113 0.5328,0.69917 0.41543,1.005 -0.27055,0.70509 0.99127,1.12412 1.90789,0.63355 0.55058,-0.29464 0.90657,-0.16482 1.86542,0.6804 0.65176,0.5745 1.2851,1.04705 1.40751,1.05015 0.12238,0.004 0.62939,-0.82779 1.12667,-1.84644 0.6635,-1.35911 0.87845,-2.30159 0.80758,-3.54093 -0.0776,-1.35615 0.0631,-1.86119 0.71391,-2.56346 0.44577,-0.48102 1.22919,-1.58899 1.74093,-2.46215 0.5117,-0.87319 1.19164,-1.78339 1.51094,-2.02268 0.31934,-0.23929 1.04835,-1.07008 1.6201,-1.84619 0.57171,-0.7761104 1.12727,-1.4904904 1.23451,-1.5875004 0.10728,-0.097 0.19505,-0.38936 0.19505,-0.64971 0,-0.26032 0.64449,-0.8539005 1.43224,-1.3191105 l 1.43225,-0.84582 1.56637,0.78994 1.56636,0.78997 -0.0959,1.8224205 c -0.0906,1.7213804 -0.0358,1.8523604 0.9882,2.3632204 1.03389,0.51576 1.07396,0.50895 0.86586,-0.14672 -0.24638,-0.77629 0.69169,-1.00288 1.02065,-0.24655 0.10549,0.24253 0.11526,0.0441 0.0219,-0.44098 -0.20028,-1.03833 0.9918,-3.1750009 1.77133,-3.1750009 0.28892,0 0.76115,0.4560705 1.04941,1.0135005 0.28825,0.55742 0.85062,1.0988704 1.24968,1.2032504 0.4451,0.11638 1.01148,0.84967 1.46519,1.89692 0.40679,0.93892 1.24989,2.26279 1.87357,2.94189 1.241,1.35128 2.38717,3.98466 2.08128,4.78179 -0.3,0.78183 0.78856,0.98387 1.59244,0.29556 0.39638,-0.33941 0.64329,-0.74235 0.54871,-0.89542 -0.0946,-0.15307 0.13981,-0.47304 0.52091,-0.71102 0.63945,-0.39935 0.65271,-0.51051 0.17191,-1.44029 -0.28656,-0.55414 -0.42037,-1.32475 -0.29732,-1.71242 0.12305,-0.38766 0.0491,-0.91528 -0.1644,-1.17245 -0.29778,-0.35881 -0.16086,-0.61941 0.58823,-1.11986 0.53696,-0.35874 1.07646,-0.62325 1.19888,-0.5878 0.12241,0.0354 0.50422,-0.24673 0.84843,-0.6271 0.3442,-0.38036 0.82807,-0.69155 1.07523,-0.69155 0.74362,0 2.96905,2.32329 2.96905,3.09961 0,0.95321 0.35274,1.83928 0.73222,1.83928 0.16718,0 0.21259,-0.23812 0.1009,-0.52917 -0.11233,-0.29269 -0.0102,-0.52916 0.2286,-0.52916 0.26917,0 0.35637,-0.28797 0.23163,-0.76504 -0.28667,-1.09611 1.70423,-3.57215 2.63476,-3.27681 0.85633,0.27178 3.12744,2.59066 3.12744,3.19321 0,0.85277 0.77142,0.93263 1.78315,0.18464 0.55577,-0.41092 1.1587,-0.74711 1.33982,-0.74711 0.18111,0 0.41497,-0.22317 0.5196,-0.4959 0.10467,-0.27274 0.67868,-0.60318 1.27558,-0.73427 0.59686,-0.1311 1.00538,-0.36756 0.9078,-0.52547 -0.2425,-0.39236 0.75417,-0.73871 1.406,-0.48859 0.29104,0.11169 0.52916,0.36629 0.52916,0.56582 0,0.19953 0.35719,0.72598 0.79375,1.16991 1.53603,1.56193 2.48141,3.04331 2.60174,4.07677 0.0669,0.57433 0.28275,1.34536 0.47971,1.71337 0.19699,0.36806 0.35814,1.0522 0.35814,1.52034 0,1.15376 1.18646,2.44139 2.37599,2.57862 1.0625,0.1226 2.91567,-0.54338 2.91567,-1.04778 0,-0.17293 0.39688,-0.68224 0.88195,-1.13178 0.48507,-0.44955 0.88194,-1.00277 0.88194,-1.2294 0,-0.79699 1.94839,-3.50061 2.64584,-3.67139 0.38805,-0.095 1.26118,-0.0497 1.94027,0.10075 1.16999,0.25919 1.23645,0.35306 1.26743,1.79084 0.0212,0.98291 -0.13727,1.58256 -0.44997,1.70254 -0.59686,0.22906 0.0559,1.16117 0.81322,1.16117 0.5599,0 0.60886,0.318 0.15854,1.02944 -0.20651,0.32629 -0.1185,0.80271 0.25308,1.36984 0.54716,0.83502 0.53041,0.90092 -0.42174,1.66014 -1.10155,0.87834 -0.97829,1.06722 1.20167,1.84143 1.54396,0.54835 1.63533,0.54878 1.69485,0.008 0.0268,-0.24254 0.14023,-1.07206 0.25227,-1.84337 0.23255,-1.60112 -0.33285,-2.94901 -1.41168,-3.36543 -0.65948,-0.2546 -0.63779,-0.30378 0.29521,-0.66918 0.85118,-0.33338 0.97186,-0.53471 0.77964,-1.30062 -0.1251,-0.49841 -0.0944,-0.82402 0.0681,-0.72355 0.16256,0.10047 0.5159,0.0465 0.78517,-0.11995 0.39339,-0.2431 0.40341,-0.4065 0.0511,-0.83103 -0.35797,-0.43135 -0.25661,-0.88851 0.55185,-2.48853 0.95221,-1.88447 1.04087,-1.957 2.29736,-1.87971 1.10648,0.068 1.42109,0.28332 2.05105,1.40331 0.60811,1.08113 0.94262,1.32292 1.83024,1.32292 1.49772,0 4.69184,3.11461 4.33786,4.22988 -0.16309,0.51382 0.0449,1.11044 0.67536,1.93696 0.50109,0.65694 0.91105,1.53511 0.91105,1.95153 0,0.65772 0.13896,0.72662 1.05833,0.52469 0.67579,-0.14842 1.05834,-0.0921 1.05834,0.15592 0,0.21361 0.39274,0.56731 0.8728,0.78603 0.55538,0.25308 1.09065,0.98802 1.47186,2.02092 0.32946,0.892779 0.73103,1.798959 0.89236,2.013689 0.16132,0.21477 0.18877,0.91327 0.061,1.55226 -0.1802,0.90103 -0.0862,1.26866 0.41892,1.63802 0.92018,0.67285 1.35544,0.5945 1.7557,-0.31599 0.19153,-0.43568 0.76705,-0.99148 1.27893,-1.23507 0.51191,-0.24359 1.30566,-0.93454 1.76389,-1.53547 0.45826,-0.60095 1.23006,-1.58326 1.71513,-2.182989 0.48507,-0.59968 1.46657,-2.26007 2.18116,-3.6897 1.0323,-2.06537 1.19535,-2.6392 0.79375,-2.79333 -0.74542,-0.28603 -0.61507,-1.14808 0.28829,-1.90637 0.68379,-0.57397 1.16028,-0.63589 3.43958,-0.44687 1.45521,0.12065 2.95282,0.43043 3.32804,0.68838 0.37521,0.25791 1.04926,0.37684 1.49789,0.26423 0.61521,-0.15441 1.04549,0.0572 1.75077,0.86092 0.80447,0.9168 1.1086,1.03752 2.17723,0.86409 1.03199,-0.16746 1.20605,-0.10756 1.02888,0.35416 -0.25135,0.65503 0.55489,1.07142 1.07245,0.55386 0.52941,-0.52942 1.73284,0.23167 2.39698,1.51599 0.44979,0.86977 0.71,1.03512 1.32655,0.843 1.85141,-0.57694 2.20514,-0.55524 2.99582,0.18393 0.44973,0.42041 0.73943,0.96834 0.64375,1.21758 -0.11627,0.30304 0.0497,0.39476 0.50098,0.27676 0.40443,-0.10577 0.75692,0.0373 0.87962,0.35708 0.13204,0.34413 0.63652,0.52137 1.42067,0.49914 1.1024,-0.0314 1.25007,-0.16139 1.58189,-1.39368 0.20133,-0.74757 0.59581,-1.44741 0.87669,-1.55519 0.65412,-0.251 0.64018,-1.85995 -0.0236,-2.73738 -0.35549,-0.46983 -0.4022,-0.80884 -0.15279,-1.10938 0.19756,-0.23802 0.31394,-0.64791 0.25863,-0.91087 -0.0665,-0.31609 0.20962,-0.45815 0.81474,-0.4192 1.25437,0.0807 4.19996,2.79904 4.19996,3.87589 0,0.45523 0.13829,0.82769 0.3073,0.82769 0.16902,0 0.68496,0.55453 1.14653,1.23233 0.9495,1.39424 2.42672,1.73277 2.42672,0.55611 0,-0.43765 0.28364,-0.72132 0.79375,-0.79375 0.64114,-0.0911 0.77333,-0.30494 0.6876,-1.11237 -0.0898,-0.84547 -0.004,-0.96647 0.57083,-0.78472 0.51869,0.1646 0.78035,-0.0346 1.11908,-0.85249 0.50194,-1.21172 0.77675,-1.30704 1.44537,-0.5014 0.2583,0.31125 0.83337,0.70418 1.2779,0.87319 0.44454,0.16902 0.80825,0.60226 0.80825,0.9628 0,0.97624 0.39956,1.19373 0.92403,0.50303 0.43424,-0.57185 0.46888,-0.56572 0.52959,0.0937 0.0357,0.38806 0.10185,0.86431 0.14693,1.05833 0.0451,0.19403 0.10026,0.56819 0.12266,0.8315 0.0233,0.27436 0.26656,0.39204 0.56985,0.27566 0.64943,-0.24924 0.73582,1.21733 0.12897,2.189059 -0.31362,0.50221 -0.2697,0.83996 0.20303,1.56143 0.58794,0.89732 1.60633,0.98061 1.61004,0.13169 0,-0.22176 0.39409,-0.87948 0.87358,-1.46156 0.73113,-0.887519 0.92851,-0.972919 1.22294,-0.52917 0.27171,0.40954 0.49294,0.44073 0.97847,0.13794 0.34508,-0.215159 0.62741,-0.564409 0.62741,-0.776109 0,-0.21167 0.19844,-0.58332 0.44097,-0.82585 0.24254,-0.24254 0.44098,-0.62809 0.44098,-0.85679 0,-0.22871 0.46485,-0.60837 1.03296,-0.84367 0.56815,-0.23534 1.1188,-0.65148 1.22368,-0.92477 0.10485,-0.27327 0.39833,-0.49686 0.65218,-0.49686 0.25383,0 1.03382,-0.59531 1.73334,-1.32291 2.52861,-2.63021 3.4458,-3.64769 3.51025,-3.89414 0.15829,-0.60512 0.86727,-1.48572 1.1962,-1.48572 0.19769,0 0.56748,-0.33313 0.82172,-0.74027 0.33913,-0.54296 0.66728,-0.6767 1.23141,-0.50176 2.61863,0.81192 3.39989,0.80769 4.29651,-0.0233 0.48529,-0.44972 0.8823,-0.95853 0.8823,-1.13065 0,-0.42461 1.61452,-1.13182 2.58389,-1.13182 0.43271,0 1.20466,-0.47625 1.71545,-1.05833 0.78772,-0.89772 1.18357,-1.05834 2.6084,-1.05834 0.93074,0 1.92811,0.21844 2.23672,0.4899 0.30632,0.26946 1.07287,0.59955 1.70346,0.73361 1.00407,0.21339 1.14653,0.1525 1.14653,-0.48991 0,-0.5177 0.22542,-0.7336 0.76598,-0.7336 0.42129,0 1.04747,-0.25474 1.39153,-0.56614 0.57895,-0.52391 0.73159,-0.49106 2.04869,0.44098 1.57685,1.11583 1.79659,1.71305 0.73268,1.99125 -0.42213,0.11042 -0.70555,0.48122 -0.70555,0.92311 0,0.97896 -0.55033,0.9319 -1.84545,-0.15786 -0.58597,-0.49305 -1.16449,-0.79689 -1.28567,-0.67519 -0.12114,0.12168 0.16701,0.5352 0.64037,0.91896 0.47335,0.38375 1.03766,1.04475 1.25405,1.46893 0.34657,0.67948 0.64297,0.76101 2.49075,0.68527 2.05321,-0.0841 2.10849,-0.0619 2.62651,1.05833 0.41215,0.89126 0.94269,1.29201 2.39906,1.81226 1.61713,0.57767 2.05137,0.60804 3.21268,0.22479 0.73854,-0.24374 1.67336,-0.33825 2.0774,-0.21005 0.54116,0.17177 0.84413,0.0286 1.1508,-0.54458 0.37196,-0.69508 0.26179,-0.92033 -1.03685,-2.11945 -1.56295,-1.44318 -1.88535,-1.99874 -0.74754,-1.28817 0.38806,0.24232 0.70556,0.56677 0.70556,0.72093 0,0.41716 1.19115,-0.29841 2.14294,-1.28735 0.638,-0.66291 0.98323,-0.78871 1.4616,-0.5327 0.34449,0.18433 1.51215,0.49894 2.59486,0.69907 1.65922,0.30674 2.10908,0.27181 2.86325,-0.22232 0.55707,-0.36502 1.31229,-0.52236 2.00145,-0.41692 0.64632,0.0989 1.49394,-0.0556 2.03753,-0.3714 0.54593,-0.31715 1.20238,-0.43614 1.5875,-0.2878 0.61849,0.23823 0.62079,0.27312 0.0393,0.59951 -0.73212,0.41103 -0.83016,1.72265 -0.12877,1.72265 0.26872,0 0.75195,0.40192 1.07383,0.8932 0.3527,0.53827 0.75229,0.78994 1.00562,0.63334 0.23125,-0.14287 0.89895,-0.2195 1.48382,-0.17028 0.89994,0.0758 1.14092,-0.0875 1.56754,-1.06197 0.48538,-1.10878 2.72845,-3.46414 3.30228,-3.46759 0.15324,0 0.88547,0.3079 1.62715,0.68626 1.30972,0.66816 2.50395,2.42894 2.50395,3.69185 0,0.54681 2.01249,2.6441 2.55763,2.66541 0.14553,0.006 0.26459,-0.22779 0.26459,-0.51883 0,-0.29104 0.22489,-0.52916 0.49974,-0.52916 0.27485,0 0.79079,-0.38157 1.14653,-0.84794 0.51929,-0.68079 0.87277,-0.81199 1.79331,-0.66552 1.2494,0.19879 1.50739,0.63126 0.52917,0.88706 -0.93532,0.24458 -0.86089,2.51235 0.0882,2.68644 0.38806,0.0712 0.98337,0.37582 1.32292,0.67688 0.64357,0.57065 0.73829,0.43783 0.63115,-0.88484 -0.0671,-0.82868 0.79943,-1.12296 1.23437,-0.41921 0.12732,0.20599 0.61295,0.51957 1.07915,0.69681 0.50984,0.19385 0.84769,0.60699 0.84769,1.03657 0,0.39288 0.14743,0.7143 0.32759,0.7143 0.59489,0 1.43619,1.09548 1.4417,1.87727 0.004,0.4227 0.1507,0.99822 0.32826,1.27889 0.26631,0.42094 0.4469,0.35917 1.03095,-0.35278 0.38944,-0.47469 0.80991,-1.25839 0.93441,-1.74152 0.12449,-0.48313 0.39363,-0.98178 0.59806,-1.10814 0.24486,-0.15131 0.17508,-0.5104 -0.20436,-1.05216 -0.31683,-0.45234 -0.57605,-1.50545 -0.57605,-2.34026 0,-1.3939 0.0838,-1.53458 1.02679,-1.72318 0.96502,-0.193 1.00503,-0.26786 0.66478,-1.24393 -0.45724,-1.31159 -0.19516,-1.58263 0.83354,-0.86212 1.04129,0.72934 1.35544,0.71311 1.35544,-0.0701 0,-0.9387 -0.81869,-2.53386 -1.3021,-2.53704 -0.5346,-0.004 -0.90502,-0.60063 -0.95324,-1.53666 -0.0222,-0.43367 -0.46708,-0.9537 -1.09037,-1.2749404 -0.57898,-0.29841 -1.47683,-1.00968 -1.99527,-1.58065 -0.75093,-0.8270205 -0.9041,-1.2753705 -0.75325,-2.2048705 0.14816,-0.91309 0.0666,-1.16674 -0.37494,-1.16674 -0.33849,0 -0.48849,0.19745 -0.37486,0.49347 0.10414,0.27143 0.0198,0.59831 -0.18746,0.7264 -0.2177,0.13455 -0.37684,-0.0556 -0.37684,-0.45028 0,-0.37578 -0.24832,-0.88928 -0.55185,-1.1412 -0.6186,-0.5134 -0.41801,-1.97923 0.35655,-2.6052 0.59658,-0.48217 1.03583,-2.31485 0.55481,-2.31485 -0.19773,0 -0.35951,-0.23256 -0.35951,-0.51675 0,-0.61345 1.34831,-1.42798 2.15992,-1.30486 0.32494,0.0493 0.65362,-0.22373 0.76023,-0.6315 0.10333,-0.39508 0.45964,-0.82261 0.79181,-0.95007 0.81365,-0.31224 2.48751,0.34054 2.35733,0.9193 -0.0574,0.25513 0.24099,0.83136 0.66294,1.28052 0.50448,0.53696 0.69903,1.07752 0.56812,1.57818 -0.14373,0.54959 -0.0159,0.80942 0.45917,0.93366 0.6603,0.17265 1.29448,1.16096 0.745,1.16096 -0.16104,0 -0.21625,0.4004 -0.1227,0.88978 0.14009,0.73282 0.26063,0.8146 0.68351,0.46365 0.32963,-0.27358 0.59856,-0.30063 0.75113,-0.0756 0.13074,0.19276 1.3062,0.8606 2.61215,1.48403 1.30591,0.62347 2.69497,1.47765 3.0868,1.89819 0.77692,0.83393 0.95338,2.2563705 0.30667,2.4719505 -0.22313,0.0744 0.15,0.13522 0.82914,0.13522 2.05662,0 5.92656,3.2805504 5.92656,5.0239104 0,0.59002 0.14386,1.1617 0.31965,1.27035 0.17582,0.10866 0.24461,0.48458 0.15286,0.83542 -0.11434,0.43723 0.12322,0.77 0.75526,1.05798 1.27349,0.58021 1.42522,0.54299 1.88302,-0.46182 0.22102,-0.48507 0.6434,-0.88195 0.9386,-0.88195 0.58223,0 0.73029,1.06285 0.22359,1.60514 -0.17222,0.18433 -0.41797,0.68266 -0.54613,1.1074 -0.36668,1.21546 0.70291,1.57551 3.05569,1.02856 1.07742,-0.25043 2.43392,-0.38562 3.01448,-0.30042 0.58053,0.0852 1.16308,-0.019 1.29452,-0.23178 0.13145,-0.21265 0.54917,-0.38668 0.9283,-0.38668 0.48895,0 0.95628,-0.56388 1.60796,-1.94027 0.50529,-1.06716 1.05386,-1.94028 1.2191,-1.94028 0.1652,0 0.20902,-0.23813 0.0973,-0.52917 -0.225,-0.58635 0.40933,-0.73466 0.75438,-0.17639 0.11991,0.19403 0.69536,0.35278 1.27875,0.35278 1.53638,0 2.28526,0.51717 3.3298,2.29955 0.8849,1.50992 2.25107,2.19163 2.28473,1.14003 0.008,-0.24253 0.2486,-0.009 0.53519,0.51915 0.69868,1.28743 1.9189,2.47167 3.10004,3.00863 1.25293,0.56963 1.64232,0.55654 1.64232,-0.0552 0,-0.33394 0.24786,-0.43131 0.7583,-0.29782 0.49082,0.12834 0.9181,-0.0201 1.21126,-0.42114 0.24913,-0.34068 0.59831,-0.52959 0.77604,-0.41978 0.17769,0.10982 0.52874,-0.18464 0.78017,-0.6544 0.41822,-0.78151 0.51936,-0.81047 1.18999,-0.34075 0.97314,0.68164 1.30838,0.64792 1.03417,-0.10399 -0.20782,-0.56995 -0.1686,-0.56777 0.51089,0.0282 0.5909,0.51819 0.88096,0.56793 1.47094,0.25216 0.80807,-0.43243 0.94372,-1.07689 0.3514,-1.6692 -0.25643,-0.25643 -0.26451,-0.45706 -0.0243,-0.60547 0.19752,-0.1221 0.45886,-0.0607 0.58071,0.13656 0.47262,0.76468 1.65072,0.36286 2.05183,-0.69981 0.47145,-1.24897 0.63348,-1.28764 1.47951,-0.35278 0.35119,0.38806 0.9314,0.70556 1.2894,0.70556 0.83633,0 0.8866,-1.6231 0.0857,-2.76655 -0.71868,-1.02606 -0.39959,-1.36497 0.64234,-0.68228 1.11915,0.73329 1.50445,0.73675 1.5464,0.0138 0.0661,-1.13795 0.5353,-2.20937 0.9676,-2.20937 0.50591,0 1.64214,-1.25173 1.64214,-1.8090504 0,-0.23428 0.38389,-0.31648 0.96192,-0.20599 0.57803,0.11049 1.48756,-0.0843 2.27902,-0.48803 1.59198,-0.8122 5.09051,-0.89387 7.16601,-0.16736 1.2331,0.43166 1.48618,0.42665 2.00624,-0.0399 0.32731,-0.29362 0.76387,-0.42954 0.97014,-0.30205 0.20624,0.12746 0.37501,0.0769 0.37501,-0.11243 0,-0.18933 -0.18151,-0.4047105 -0.40337,-0.4786805 -0.64982,-0.21661 0.30395,-1.66787 1.35996,-2.0694 0.75388,-0.28659 1.06719,-0.20651 1.79084,0.45787 0.62233,0.57133 0.92382,0.67427 1.03784,0.3544 0.1078,-0.30254 0.5201,-0.0995 1.25327,0.61736 1.23998,1.2122905 1.2609,1.2179305 2.11639,0.56896 0.96619,-0.73296 0.20196,-2.12262 -1.22326,-2.22436 -1.29529,-0.0925 -1.67763,-0.3809 -1.03311,-0.77926 0.38224,-0.23622 0.38421,-0.34155 0.0106,-0.57245 -0.25378,-0.15681 -0.51025,-0.12566 -0.57545,0.07 -0.0647,0.19406 -0.58067,0.2849 -1.14663,0.20182 -1.01974,-0.14965 -1.02295,-0.15748 -0.3562,-0.87312 l 0.67275,-0.72214 1.9982,0.76465 c 1.09897,0.42058 2.7316,1.36468 3.628,2.09807 0.89645,0.73339 2.05486,1.6001 2.57433,1.92606 0.51946,0.32597 0.99571,0.9537405 1.05833,1.3951005 0.0736,0.51872 0.39451,0.8422904 0.90763,0.9151704 0.64347,0.0914 0.79375,0.33737 0.79375,1.29914 0,0.8768 0.18422,1.24489 0.70594,1.41044 1.11041,0.35246 1.44974,1.31682 0.86194,2.4498 -0.56959,1.09791 -0.67355,2.3126 -0.1979,2.3126 0.17138,0 0.39775,0.32939 0.50302,0.73194 0.15724,0.60131 0.31341,0.66668 0.87482,0.36622 0.51855,-0.27753 1.00958,-0.19946 2.03553,0.32357 1.03988,0.53019 1.41633,0.58818 1.63036,0.25118 0.16394,-0.25817 0.28049,-0.28212 0.28367,-0.0583 0.004,0.2208 0.44856,0.31482 1.06373,0.22454 0.75985,-0.11151 1.05833,-0.0113 1.05833,0.35507 0,0.28075 0.19844,0.51294 0.44098,0.51598 0.24253,0.004 0.95691,0.12153 1.5875,0.26324 0.63059,0.14171 1.14656,0.12598 1.14663,-0.0349 2.5e-4,-0.71607 2.41367,-0.24088 3.68053,0.72464 1.07573,0.81985 1.3958,0.92255 1.64927,0.52916 0.21939,-0.34046 0.39455,-0.37073 0.57912,-0.10001 0.14552,0.21347 0.92791,0.47463 1.73863,0.58039 1.23596,0.16126 1.43997,0.10347 1.26298,-0.35775 -0.133,-0.34657 -0.0674,-0.46129 0.17727,-0.31006 0.21357,0.13201 0.48447,0.0845 0.60198,-0.10565 0.12231,-0.19791 0.50977,-0.0495 0.90632,0.34702 0.86018,0.86018 2.80935,0.94711 2.80935,0.12527 0,-0.42527 0.21551,-0.51332 0.86032,-0.35147 0.47318,0.11875 0.94565,0.0779 1.0499,-0.0908 0.32378,-0.52384 1.98801,0.004 2.50589,0.79357 0.2709,0.41346 0.9756,1.03707 1.56601,1.38582 1.05364,0.62241 1.07344,0.62075 1.07344,-0.0914 0,-0.39903 0.17571,-0.72549 0.39052,-0.72549 0.21477,0 0.29916,-0.23813 0.18747,-0.52917 -0.11169,-0.29104 -0.0761,-0.52916 0.079,-0.52916 0.15515,0 0.49428,-0.39646 0.75357,-0.88096 0.38435,-0.71819 0.73762,-0.8812 1.9117,-0.88219 3.63823,-0.004 4.728,-0.26794 3.70459,-0.90043 -0.42023,-0.25968 1.67756,-2.23693 2.39885,-2.26099 0.23647,-0.008 0.3447,-0.2364 0.24053,-0.50779 -0.10414,-0.27143 -0.0198,-0.59831 0.18746,-0.7264 0.20726,-0.1281 0.37684,-0.54014 0.37684,-0.91571 0,-0.58286 0.18119,-0.65401 1.23769,-0.48609 0.86127,0.13688 1.40539,0.0289 1.78907,-0.35472 0.50003,-0.49999 0.48331,-0.55139 -0.17935,-0.55139 -0.79862,0 -0.99561,-0.54963 -0.28977,-0.80846 0.33796,-0.1239 0.34435,-0.26451 0.0272,-0.60184 -0.6423,-0.6834 0.15406,-2.1174804 1.17588,-2.1174804 0.49844,0 0.82533,-0.20958 0.82533,-0.52916 0,-0.59316 0.89785,-0.72143 1.23472,-0.17639 0.11991,0.19402 0.0499,0.35277 -0.15558,0.35277 -0.20545,0 -0.37359,0.23813 -0.37359,0.52917 0,0.3134404 0.32357,0.5293404 0.79375,0.5295904 0.43656,2.5e-4 1.25501,0.39712 1.81875,0.88195 1.15788,0.99578 2.04223,1.11982 2.66178,0.37331 0.23195,-0.27951 0.6442,-0.42281 0.91613,-0.31849 0.57012,0.21879 2.58046,-1.2506 2.60953,-1.9073304 0.0265,-0.59891 0.46782,-0.55453 1.75535,0.17639 0.59813,0.3395504 1.02263,0.7902904 0.94336,1.0016404 -0.0793,0.21138 0.33391,0.66668 0.91814,1.0118 1.02549,0.60576 1.08564,0.6041 1.73771,-0.048 0.58533,-0.58529 0.62114,-0.83135 0.26833,-1.8434004 -0.23079,-0.66209 -0.27189,-1.26616 -0.0949,-1.39467 0.17176,-0.12467 0.51318,-0.5856105 0.75868,-1.0243305 0.40749,-0.72813 0.30977,-0.93422 -1.12141,-2.36544 -1.40963,-1.4096 -1.49744,-1.59015 -0.87044,-1.78915 0.38357,-0.12174 0.93465,-0.0243 1.22459,0.21618 0.86946,0.72161 1.35079,-0.13599 0.5056,-0.90085 -0.91355,-0.82677 -0.89789,-1.09813 0.13434,-2.32484 0.46648,-0.55443 0.91176,-1.19874 0.98944,-1.43182 0.0849,-0.2546 0.97864,-0.45329 2.23862,-0.49763 1.50809,-0.0531 2.54363,-0.32893 3.68596,-0.98185 1.51046,-0.86332 1.64419,-0.88113 2.71689,-0.3616 0.62053,0.30053 1.37632,0.92502 1.67947,1.38769 0.51078,0.77953 0.49907,0.89344 -0.15925,1.55176 -0.39074,0.39074 -0.71046,0.85224 -0.71046,1.02549 0,0.46295 0.88392,0.72288 1.71722,0.50493 0.81816,-0.21392 1.39608,0.27729 2.14813,1.82587 0.75354,1.5517 1.45373,2.29306 2.16574,2.29306 0.83273,0 1.24294,0.70527 0.63042,1.08384 -0.39039,0.24126 -0.34777,0.40269 0.21939,0.83128 0.3871,0.29253 1.06239,0.53693 1.50064,0.54311 0.75304,0.0106 0.78486,0.1132405 0.57867,1.8676705 l -0.2182,1.8564904 1.27342,0.60728 c 0.70041,0.33397 1.27346,0.75134 1.27346,0.92748 0,0.17615 0.39688,0.41984 0.88195,0.54159 1.31868,0.33097 1.06623,0.79385 -0.57627,1.0565 -1.5355,0.24553 -2.19837,0.0197 -1.39678,-0.47555 0.54652,-0.33775 0.21953,-1.07858 -0.47608,-1.07858 -0.76856,0 -0.87626,1.6104 -0.1385,2.07112 0.35602,0.22236 0.64735,0.52296 0.64735,0.66799 0,0.51311 -2.06315,1.16833 -2.96566,0.94181 -1.09277,-0.27429 -1.18438,0.19918 -0.20934,1.08158 0.77096,0.69769 0.93807,2.27221 0.30804,2.90223 -0.29481,0.29482 -0.19431,0.7263 0.38912,1.6703 0.63196,1.02253 0.93556,1.22707 1.54404,1.04034 1.06302,-0.32625 1.07995,-0.35856 0.98961,-1.88969 -0.0446,-0.75512 0.0685,-1.46533 0.25132,-1.57829 0.18277,-0.11296 0.44143,-0.99879 0.57481,-1.9685 0.13339,-0.96972 0.37906,-1.8475 0.546,-1.95069 0.54966,-0.33969 1.94684,0.21354 2.40926,0.95406 0.59002,0.94474 -0.0124,1.68246 -0.82363,1.00905 -0.45085,-0.37419 -0.54413,-0.35705 -0.54413,0.0999 0,0.30335 0.16958,0.65634 0.37684,0.78444 0.20726,0.12809 0.29171,0.45466 0.18771,0.72569 -0.10862,0.28311 0.19728,0.74592 0.71903,1.08779 0.87454,0.57302 0.93099,0.56473 1.5257,-0.22366 0.4095,-0.54289 0.701,-0.68372 0.86522,-0.41793 0.13624,0.22041 0.0796,0.40075 -0.12591,0.40075 -0.20545,0 -0.37359,0.37836 -0.37359,0.84081 0,0.57524 0.25069,0.90636 0.79375,1.04839 1.20305,0.31461 3.43959,-0.14027 3.43959,-0.69956 0,-0.78793 1.37452,-0.55273 2.32512,0.39786 0.91179,0.91179 1.55543,1.13535 1.55543,0.54025 0,-0.18796 0.23813,-0.25033 0.52917,-0.13864 0.29104,0.11168 0.52917,0.0272 0.52917,-0.18747 0,-0.21481 0.21166,-0.39053 0.47035,-0.39053 0.28586,0 0.4704,-0.4089 0.4704,-1.04235 0,-0.63789 0.29591,-1.28813 0.76263,-1.67569 0.53972,-0.44824 0.69953,-0.86537 0.54681,-1.42709 -0.11871,-0.43657 -0.36541,-0.79375 -0.54825,-0.79375 -0.18288,0 -0.24113,0.14777 -0.12951,0.3284 0.37091,0.60014 -0.38767,0.70852 -1.16215,0.16605 -0.95741,-0.6706 -0.98905,-1.19306 -0.0575,-0.94943 0.54145,0.14157 0.70556,0.0109 0.70556,-0.56222 0,-1.00225 1.58581,-1.03304 2.11667,-0.0411 0.20768,0.38806 0.57195,0.70556 0.80948,0.70556 0.23756,0 0.62498,0.30914 0.86092,0.68696 0.27037,0.4329 0.70534,0.63373 1.17626,0.54307 0.66845,-0.12877 2.79778,1.068 2.79778,1.5724 0,0.11021 -0.47911,0.41243 -1.06472,0.67162 l -1.06472,0.47131 0.93571,0.73603 0.93571,0.73604 -0.84113,0.33013 c -0.5201,0.20415 -0.6683,0.39483 -0.3883,0.49964 0.65507,0.24518 1.55293,-0.61895 1.32641,-1.27663 -0.12422,-0.36079 0.0325,-0.29616 0.43952,0.18111 0.6054,0.70997 1.89177,1.5511 2.37219,1.5511 0.1252,0 0.12509,-0.46673 -1.8e-4,-1.03717 -0.19794,-0.90114 -0.0889,-1.10906 0.83157,-1.58503 1.45584,-0.75283 2.03687,-0.42164 3.06204,1.7454 0.48471,1.02461 1.10797,2.05102 1.385,2.28092 0.78515,0.65162 1.78594,0.2812 1.68826,-0.62484 -0.0462,-0.42859 0.0729,-0.77928 0.26458,-0.77928 0.19174,0 0.34862,-0.24751 0.34862,-0.54999 0,-0.3025 0.14777,-0.45864 0.3284,-0.34702 0.54282,0.33545 0.78944,-0.44927 0.38107,-1.21236 -0.27933,-0.5219 -0.27358,-0.71286 0.0215,-0.71286 0.22161,0 0.30924,-0.24412 0.19473,-0.54253 -0.11843,-0.30868 0.0173,-0.62904 0.31507,-0.74327 0.28776,-0.11046 0.52824,-0.46161 0.53442,-0.78042 0.0102,-0.53304 0.0461,-0.53371 0.44602,-0.008 0.23914,0.31408 0.9483,0.68386 1.57592,0.82169 0.98828,0.21706 1.10981,0.16894 0.9071,-0.35927 -0.19734,-0.51425 -0.0866,-0.57291 0.70591,-0.37402 0.64721,0.16242 0.94163,0.0965 0.94534,-0.21177 0.0116,-0.95892 0.58233,-1.41753 1.29166,-1.03791 0.76457,0.40919 1.74173,-0.009 1.3819,-0.59093 -0.16521,-0.2673 0.0717,-0.27164 0.80846,-0.0148 1.21783,0.42453 1.64359,1.24488 1.0299,1.98437 -0.35017,0.42189 -0.31732,0.60773 0.17029,0.96432 0.33224,0.24292 0.60406,0.76193 0.60406,1.15334 0,1.0131 0.84472,1.62846 1.64803,1.2005 0.35476,-0.18898 1.16096,-0.53485 1.79155,-0.7686 0.63059,-0.23375 1.14653,-0.64385 1.14653,-0.91136 0,-0.26751 0.3175,-0.48638 0.70555,-0.48638 0.705,0 0.70556,0.2352 0.70556,286.455551 v 286.45554 h -573.26395 -573.2639 l 0.025,-301.53679 z M 324.96395,34.596308 c -0.0455,-0.7276 -0.0994,-1.60376 -0.11963,-1.94701 -0.0286,-0.48482 -0.23354,-0.57468 -0.91874,-0.4027 -0.92791,0.23287 -1.00189,0.16232 -0.68788,-0.65595 0.20514,-0.5346 1.77236,-0.43328 2.12503,0.13737 0.39818,0.64424 0.85591,0.27361 0.85591,-0.693 0,-1.13739 -0.791,-1.97128 -2.18324,-2.30166 -1.05272,-0.24977 -1.73249,0.37352 -0.94876,0.86991 0.35204,0.22299 0.36453,0.30943 0.0452,0.31334 -0.2939,0.004 -0.44097,0.60001 -0.44097,1.78813 0,1.41488 0.2002,2.03365 0.97014,2.99861 0.53358,0.66872 1.06366,1.21588 1.17793,1.21588 0.1143,0 0.17053,-0.59531 0.12502,-1.32292 z m -5.05845,-1.24728 c 0.87101,-0.66343 1.12159,-1.84644 0.50028,-2.36209 -0.7953,-0.66005 -1.59547,0.15448 -1.59547,1.62408 0,1.27794 0.20496,1.41605 1.09519,0.73801 z m -4.02163,-3.06422 c -0.23925,-0.63384 -0.49329,-0.89042 -0.64255,-0.64894 -0.13575,0.21968 -0.0645,0.69141 0.15844,1.04831 0.62928,1.00764 0.92357,0.76486 0.48411,-0.39937 z m 4.45954,-0.62756 c 0.09,-0.14563 -0.17844,-0.69042 -0.59655,-1.2107 -0.6665,-0.829419 -0.83908,-0.887689 -1.4007,-0.473139 -0.55076,0.406499 -0.57595,0.576259 -0.17974,1.210689 0.44485,0.7123 1.84157,1.01586 2.17699,0.47315 z m 68.82088,-0.94478 c -0.3736,-0.27315 -0.74729,-0.42862 -0.83044,-0.34547 -0.0832,0.0832 0.15444,0.37468 0.52803,0.64788 0.3736,0.27315 0.74729,0.42862 0.83044,0.34547 0.0832,-0.0832 -0.15444,-0.37468 -0.52803,-0.64788 z M 180.59192,28.087559 c -0.3292,-0.32924 -0.4233,-0.23519 -0.4233,0.423339 0,0.65853 0.094,0.75258 0.4233,0.42333 0.3293,-0.32925 0.3293,-0.51742 0,-0.846669 z m 187.57394,-0.93634 c -0.52141,-0.17917 -0.78624,0.18422 -0.48705,0.6683 0.18966,0.30692 0.33267,0.29016 0.55319,-0.0647 0.17466,-0.28116 0.14736,-0.53019 -0.0661,-0.6036 z m 22.25834,0.45692 c 0,-0.30251 -0.15875,-0.45187 -0.35278,-0.33196 -0.19403,0.1199 -0.35278,0.36741 -0.35278,0.54998 0,0.18259 0.15875,0.331959 0.35278,0.331959 0.19403,0 0.35278,-0.247509 0.35278,-0.549979 z m -3.175,-1.91946 c 0,-1.06772 -0.50102,-1.67468 -0.87839,-1.06409 -0.12188,0.1972 -0.53971,0.35853 -0.92851,0.35853 -0.64138,0 -0.61492,0.0943 0.2854,1.01745 1.15129,1.18043 1.5215,1.10454 1.5215,-0.31189 z m 245.34188,0.68117 c -0.11162,-0.18062 -0.45117,-0.3284 -0.75452,-0.3284 -0.44845,0 -0.47004,0.0982 -0.11557,0.52529 0.45547,0.54882 1.22354,0.37504 0.87009,-0.19689 z m -241.46133,0.0244 c 0,-0.19403 -0.15875,-0.35278 -0.35278,-0.35278 -0.19402,0 -0.35277,0.15875 -0.35277,0.35278 0,0.19403 0.15875,0.35278 0.35277,0.35278 0.19403,0 0.35278,-0.15875 0.35278,-0.35278 z m 218.36945,-0.49142 c 0,-0.62152 -1.06708,-1.05205 -1.50992,-0.60921 -0.18348,0.18348 -0.22695,0.50617 -0.0966,0.71713 0.34364,0.55597 1.60651,0.47113 1.60651,-0.10792 z m -221.4299,-2.54113 c -0.0951,-0.24786 -0.39793,-0.36435 -0.67293,-0.25883 -0.61058,0.23431 -0.63295,0.54783 -0.0786,1.10218 0.49858,0.49858 1.03533,-0.10378 0.75152,-0.84335 z m 220.19518,0.91588 c -0.11991,-0.19402 -0.37677,-0.35277 -0.5708,-0.35277 -0.19402,0 -0.25467,0.15875 -0.13476,0.35277 0.11991,0.19403 0.37677,0.35278 0.5708,0.35278 0.19402,0 0.25467,-0.15875 0.13476,-0.35278 z m -0.68118,-1.09777 c 0.26084,-0.42206 -0.52246,-1.07975 -0.96227,-0.80793 -0.33006,0.20401 0.0233,1.20015 0.42566,1.20015 0.16182,0 0.40329,-0.1765 0.53661,-0.39222 z M 14.010318,22.513699 c 0,-0.19403 -0.1588,-0.35278 -0.3528,-0.35278 -0.194,0 -0.3528,0.15875 -0.3528,0.35278 0,0.19402 0.1588,0.35277 0.3528,0.35277 0.194,0 0.3528,-0.15875 0.3528,-0.35277 z m 400.853472,-0.84685 c 1.43186,-0.031 1.63689,-0.13621 1.78845,-0.91704 0.21371,-1.10099 -0.64449,-2.11667 -1.78845,-2.11667 -0.67856,0 -0.80747,0.1372 -0.63612,0.67709 0.29135,0.91803 -1.04458,1.35914 -1.86835,0.6169 -0.32562,-0.29341 -1.06832,-0.63602 -1.6504,-0.76137 -0.95211,-0.20503 -0.99692,-0.17773 -0.44644,0.27196 0.33651,0.27496 0.51893,0.59284 0.40534,0.70644 -0.11359,0.11359 0.22691,0.7748 0.75671,1.46939 0.86138,1.12938 1.00863,1.20078 1.39262,0.67564 0.28413,-0.38859 0.97646,-0.59909 2.04664,-0.62234 z m 212.77038,0.79333 c -0.13808,-0.22345 0.0208,-0.60509 0.35309,-0.84808 0.38802,-0.28374 0.46944,-0.52504 0.22758,-0.67455 -0.25111,-0.15518 -0.20109,-0.40826 0.15021,-0.75953 0.46722,-0.46725 0.4651,-0.62095 -0.0187,-1.35925 -0.43995,-0.67144 -0.46266,-0.96502 -0.11744,-1.51779 0.35271,-0.56476 0.30992,-0.8472 -0.24327,-1.60577 -0.91567,-1.25565 -1.15464,-1.17669 -1.41771,0.46849 -0.12411,0.77611 -0.37479,1.41111 -0.55711,1.41111 -0.18231,0 -0.23685,0.29813 -0.12118,0.66248 0.27457,0.86515 -1.37149,1.25335 -2.12393,0.50091 -0.44517,-0.44517 -0.54173,-0.42817 -0.75667,0.13331 -0.13554,0.35398 -0.55845,0.89666 -0.93977,1.20597 -1.00263,0.81333 -0.52398,1.72766 0.91253,1.74315 0.6367,0.007 1.55448,0.23939 2.03955,0.51668 1.08695,0.62134 2.97572,0.71017 2.61274,0.12287 z m -3.3183,-1.71037 c -0.31796,-0.2055 -0.36146,-0.34414 -0.10901,-0.34738 0.23107,-0.004 0.51826,0.15335 0.63817,0.34738 0.27069,0.43797 0.14856,0.43797 -0.52916,0 z m -347.21416,0.91843 c 0.34332,-0.75349 0.29192,-0.86328 -0.47255,-1.00943 -0.92696,-0.17721 -0.95479,-0.13074 -0.63539,1.06112 0.274,1.02238 0.62604,1.00598 1.10794,-0.0517 z m 361.67805,0.52532 c 0,-0.1464 -0.39882,-0.47967 -0.88625,-0.74051 -0.78366,-0.41942 -0.95973,-0.39543 -1.52129,0.20733 -0.6206,0.66615 -0.60042,0.68301 0.88625,0.74055 0.83672,0.0324 1.52129,-0.0609 1.52129,-0.20737 z m -49.74167,-0.70047 c 0,-0.3151 -0.82956,-0.7433 -1.43997,-0.7433 -0.17815,0 -0.32392,0.23812 -0.32392,0.52916 0,0.32925 0.33316,0.52917 0.88194,0.52917 0.48507,0 0.88195,-0.14178 0.88195,-0.31503 z m 41.49496,-1.73288 c -0.52846,-0.52846 -0.57274,-0.51456 -0.57274,0.17956 0,0.41378 -0.1028,1.0431 -0.22842,1.39852 -0.18175,0.51421 -0.0648,0.47752 0.57273,-0.17956 0.73925,-0.76193 0.75689,-0.87002 0.22843,-1.39852 z m -513.37273,1.13647 c 0.1318,-0.34357 0.053,-0.50482 -0.2048,-0.41892 -0.5274,0.17579 -0.8177,0.97758 -0.354,0.97758 0.1894,0 0.4409,-0.25139 0.5588,-0.55866 z m 567.12777,0.20588 c 0,-0.19402 -0.16813,-0.35277 -0.37359,-0.35277 -0.20549,0 -0.27549,0.15875 -0.15558,0.35277 0.11991,0.19403 0.28805,0.35278 0.3736,0.35278 0.0856,0 0.15557,-0.15875 0.15557,-0.35278 z m -512.58617,-0.35277 c 0,-0.19403 -0.1587,-0.35278 -0.3527,-0.35278 -0.1941,0 -0.3528,0.15875 -0.3528,0.35278 0,0.19402 0.1587,0.35277 0.3528,0.35277 0.194,0 0.3527,-0.15875 0.3527,-0.35277 z m 15.9397,-0.42923 c -0.2531,-0.25312 -0.4174,-0.27397 -0.4174,-0.0529 0,0.47088 0.4172,0.88808 0.6526,0.65263 0.1003,-0.10022 -0.01,-0.3701 -0.2352,-0.59972 z m -338.8713,-3.35417 c 0.024,-0.75417 -0.1294,-1.15549 -0.441,-1.15549 -0.2625,0 -0.4774,0.13935 -0.4774,0.3097 0,0.17032 -0.2536,0.91666 -0.5635,1.65852 -0.5146,1.23165 -0.5963,1.28905 -0.94,0.66047 -0.2071,-0.37864 -0.5488,-0.80444 -0.7594,-0.94629 -0.2634,-0.17738 -0.1897,-0.60004 0.236,-1.35414 0.3404,-0.60297 0.5457,-1.21469 0.4562,-1.3594 -0.089,-0.14471 -0.8294,-0.28924 -1.6443,-0.32117 -1.1047,-0.0433 -1.782,0.17086 -2.6612,0.84145 -1.4083,1.07421 -1.4986,1.56919 -0.2863,1.56919 0.4912,0 0.9844,0.23813 1.0961,0.52917 0.1117,0.29104 0.4242,0.52916 0.6945,0.52916 0.2702,0 0.4914,0.12457 0.4914,0.27683 0,0.15226 0.4308,0.77509 0.9573,1.38405 l 0.9573,1.10723 1.424,-1.2869 c 1.0809,-0.97687 1.4327,-1.56524 1.4603,-2.44238 z m 610.25907,2.59969 c 0.8286,-0.6059 0.49459,-1.7271 -0.41752,-1.40141 -1.04373,0.37267 -1.48163,0.84437 -1.27758,1.37618 0.24278,0.63264 0.85199,0.64171 1.6951,0.0254 z m -610.29547,-0.2274 c 0.1199,-0.19403 0.05,-0.35278 -0.1556,-0.35278 -0.2055,0 -0.3736,0.15875 -0.3736,0.35278 0,0.19402 0.07,0.35277 0.1556,0.35277 0.086,0 0.2537,-0.15875 0.3736,-0.35277 z m 836.08334,0 c -0.11991,-0.19403 -0.36742,-0.35278 -0.54998,-0.35278 -0.1826,0 -0.33197,0.15875 -0.33197,0.35278 0,0.19402 0.24751,0.35277 0.54998,0.35277 0.30251,0 0.45188,-0.15875 0.33197,-0.35277 z m -158.75001,-0.35278 c -0.11991,-0.19403 -0.45614,-0.35278 -0.74718,-0.35278 -0.29104,0 -0.43106,0.15875 -0.31115,0.35278 0.11991,0.19403 0.45614,0.35278 0.74718,0.35278 0.29105,0 0.43106,-0.15875 0.31115,-0.35278 z m 105.12778,0 c -0.11991,-0.19403 -0.37676,-0.35278 -0.57079,-0.35278 -0.19403,0 -0.25467,0.15875 -0.13476,0.35278 0.11991,0.19403 0.37677,0.35278 0.57079,0.35278 0.19403,0 0.25467,-0.15875 0.13476,-0.35278 z m -165.50721,-1.41425 c -0.61683,-1.23649 -1.3425,-1.42918 -0.9845,-0.26145 0.31888,1.04013 0.87115,1.712 1.22668,1.49229 0.15632,-0.0966 0.0473,-0.65049 -0.24218,-1.23084 z m 216.21902,1.1806 c -0.24253,-0.0979 -0.63941,-0.0979 -0.88194,0 -0.24254,0.0979 -0.0441,0.17794 0.44097,0.17794 0.48507,0 0.68351,-0.0801 0.44097,-0.17794 z m -1015.52702,-1.08666 c -0.2447,-0.24465 -0.914,0.25241 -0.914,0.67878 0,0.23393 0.2024,0.20715 0.5377,-0.0711 0.2957,-0.24543 0.4651,-0.51886 0.3763,-0.60766 z m 185.6956,0.45022 c 0.6542,-0.78818 0.2801,-1.46643 -0.4216,-0.76465 -0.3171,0.31701 -0.7466,0.5764 -0.9544,0.5764 -0.2079,0 -0.378,0.15875 -0.378,0.35278 0,0.53887 1.2691,0.41984 1.754,-0.16453 z m 769.06545,0.36174 c 0,-0.37236 -0.67702,-0.52878 -0.87838,-0.20296 -0.12189,0.1972 0.0257,0.35853 0.3284,0.35853 0.30247,0 0.54998,-0.07 0.54998,-0.15557 z m 32.3747,-0.26335 c -0.21802,-0.65412 -0.97748,-0.76264 -0.97748,-0.13963 0,0.3072 0.25135,0.55855 0.55855,0.55855 0.30724,0 0.49573,-0.18852 0.41893,-0.41892 z M 93.062618,17.417019 c 0.1775,0.10968 0.3227,-0.10893 0.3227,-0.48584 0,-0.38852 -0.3055,-0.76511 -0.7056,-0.8697 -0.388,-0.1015 -0.7055,-0.43752 -0.7055,-0.74673 0,-0.39077 -0.3261,-0.56219 -1.0694,-0.56219 -1.1396,0 -1.7696,-0.82994 -1.1217,-1.47782 0.496,-0.496 0.1407,-1.3444 -0.5631,-1.3444 -0.4371,0 -0.4679,-0.0941 -0.1386,-0.42333 0.6943,-0.69427 0.4896,-0.98541 -0.7232,-1.0287 -0.7424,-0.0265 -0.8978,-0.10075 -0.441,-0.21064 0.3881,-0.0934 0.8564,-0.3130604 1.0407,-0.4882504 0.1843,-0.17519 0.5812,-0.32381 0.882,-0.33027 1.417,-0.0303 3.1575,-2.8104705 1.7595,-2.8104705 -0.4615,0 -0.5959,0.17067 -0.4447,0.56476 0.1192,0.31062 0,0.70506 -0.2757,0.87654 -0.7376,0.4670505 -2.7832,0.3857005 -2.9777,-0.11839 -0.094,-0.24253 -0.6045,-0.47956 -1.1354,-0.52673 -0.5309,-0.0472 -1.3462,-0.12654 -1.8116,-0.17639 -0.4654,-0.0498 -0.9152,0.10781 -0.9995,0.35034 -0.084,0.24254 0.081,0.44098 0.3675,0.44098 0.589,0 0.9491,0.7307405 0.9491,1.9259205 0,0.9158104 0.8394,1.7788404 1.3956,1.4350304 0.2026,-0.12517 0.3683,-0.0645 0.3683,0.13493 0,0.19939 0.2127,0.28092 0.4726,0.18116 0.6375,-0.24462 1.4794,0.75113 0.9249,1.09385 -0.2204,0.13621 -0.5774,0.0709 -0.7933,-0.14495 -0.5526,-0.55266 -1.3098,-0.48828 -1.3098,0.11137 0,0.81626 1.0656,1.65795 1.8028,1.42395 0.652,-0.2069 0.7198,-0.12111 1.2412,1.57064 0.1175,0.38107 0.2521,0.40202 0.5659,0.0882 0.7164,-0.71635 1.3216,-0.45113 1.9427,0.85118 0.3312,0.69459 0.6597,1.09048 0.73,0.87973 0.07,-0.21075 0.2729,-0.29344 0.4503,-0.18377 z m -236.091498,-1.25271 c 0.2967,-0.85125 0.2714,-1.05897 -0.1293,-1.05897 -0.6362,0 -1.3453,1.30422 -1.082,1.9902 0.2753,0.71737 0.7689,0.33789 1.2113,-0.93123 z m 792.03919,1.10088 c 0,-0.17025 -0.26395,-0.52744 -0.58653,-0.79375 -0.45949,-0.37927 -0.61884,-0.38816 -0.73568,-0.041 -0.0821,0.24377 -0.29436,0.35344 -0.4718,0.24377 -0.17745,-0.10968 -0.32265,-0.0145 -0.32265,0.21194 0,0.22624 0.23304,0.32191 0.51787,0.21262 0.28484,-0.10932 0.61168,-0.0469 0.72637,0.13865 0.26141,0.42294 0.87242,0.44241 0.87242,0.0279 z m 8.67297,-0.0916 c 0.28343,-0.45858 -1.25649,-1.76216 -1.73341,-1.46742 -0.17758,0.10975 -0.17074,0.28794 0.0159,0.41339 0.18037,0.12128 0.43046,0.4983 0.55577,0.83785 0.2602,0.70527 0.79766,0.80528 1.16176,0.21618 z m -336.05075,-0.28356 c 0,-0.18257 -0.15875,-0.43008 -0.35278,-0.54999 -0.19403,-0.1199 -0.35278,0.0296 -0.35278,0.33197 0,0.30247 0.15875,0.54998 0.35278,0.54998 0.19403,0 0.35278,-0.14937 0.35278,-0.33196 z m -481.89451,-0.86163 c 0,-0.54409 0.249,-0.9059 0.7056,-1.02528 0.5531,-0.14467 0.7039,-0.47748 0.6977,-1.54047 l -0.01,-1.35594 -0.6899,0.88195 c -0.3794,0.48507 -0.6933,1.15975 -0.6977,1.4993 0,0.33955 -0.1666,0.61736 -0.3606,0.61736 -0.194,0 -0.3528,0.39688 -0.3528,0.88195 0,0.48507 0.1588,0.88194 0.3528,0.88194 0.194,0 0.3528,-0.37835 0.3528,-0.84081 z m 122.413898,0.31164 c 0,-0.57404 -1.2424,-0.73466 -1.5709,-0.20309 -0.1732,0.28011 0.3139,0.53785 1.3064,0.69134 0.1455,0.0226 0.2645,-0.1972 0.2645,-0.48825 z m 673.919672,-0.47215 c -0.65684,-0.15022 -0.96026,0.13557 -0.65991,0.62156 0.15699,0.254 0.38195,0.23339 0.70619,-0.0647 0.39776,-0.36569 0.39017,-0.45702 -0.0463,-0.55682 z m -806.38767,0.29577 c -0.1199,-0.19403 -0.3674,-0.35278 -0.55,-0.35278 -0.1826,0 -0.332,0.15875 -0.332,0.35278 0,0.19402 0.2475,0.35277 0.55,0.35277 0.3025,0 0.4519,-0.15875 0.332,-0.35277 z m 379.9702,-1.3238 c -0.407,-0.40704 -0.6158,0.2304 -0.3383,1.03261 l 0.2838,0.82035 0.1297,-0.82405 c 0.071,-0.45321 0.038,-0.91624 -0.075,-1.02891 z m 243.9173,1.34461 c 0,-0.41621 -0.68806,-0.86148 -0.94075,-0.60879 -0.2527,0.2527 0.19258,0.94075 0.60879,0.94075 0.18259,0 0.33196,-0.14936 0.33196,-0.33196 z M 98.500618,15.810879 c 0.1199,-0.19403 0.05,-0.35278 -0.1556,-0.35278 -0.2055,0 -0.3736,0.15875 -0.3736,0.35278 0,0.19403 0.07,0.35278 0.1556,0.35278 0.085,0 0.2536,-0.15875 0.3736,-0.35278 z m -263.701398,-0.39053 c 0,-0.21477 0.1984,-0.30938 0.4409,-0.21022 1.8289,0.74772 1.7162,0.88219 1.6039,-1.91286 -0.1138,-2.83157 -0.1828,-2.89687 -2.449,-2.31655 -0.8847,0.22658 -0.9417,0.16107 -1.0946,-1.2577604 -0.1379,-1.27963 -0.015,-1.6528005 0.8451,-2.5719305 1.2139,-1.2967 1.2608,-1.75923 0.2127,-2.09702 -1.7006,-0.54804 -2.7038,0.26335 -2.7228,2.20201 -0.012,1.1935505 -0.5835,1.5515505 -0.9506,0.59506 -0.1386,-0.36124 -0.5911,-0.52719 -1.3118,-0.48105 -1.7621,0.11282 -2.7453,-0.34695 -2.4864,-1.16272 0.1816,-0.57231 0.096,-0.65708 -0.4775,-0.4749 -0.982,0.31164 -1.2416,-0.61454 -0.5232,-1.86627 0.5336,-0.92978 0.536,-1.06906 0.027,-1.57762 -0.5085,-0.50857 -0.6159,-0.49361 -1.2158,0.16933 -0.3619,0.39991 -0.6184,0.7898 -0.5699,0.86646 0.3991,0.63055 -0.041,1.19768 -0.9295,1.19768 -0.6963,0 -1.2003,0.27855 -1.5956,0.88194 -0.3179,0.48507 -0.7975,0.88195 -1.0659,0.88195 -0.3144,0 -0.4224,0.25111 -0.3035,0.70555 0.1031,0.39448 0.011,0.70556 -0.2094,0.70556 -0.2167,0 -0.394,-0.23813 -0.394,-0.52917 0,-0.64255 -0.5578,-0.69451 -0.9469,-0.0882 -0.4192,0.65295 -0.395,2.1665505 0.039,2.4640505 0.5707,0.39087 2.0402,0.32289 1.7895,-0.0828 -0.1199,-0.19403 0.099,-0.35278 0.4875,-0.35278 0.3881,0 0.8077,-0.16521 0.9325,-0.36714 0.1247,-0.20189 0.531,-0.27058 0.9027,-0.15261 0.7717,0.24494 0.8842,-0.17303 0.2349,-0.8725605 -0.3424,-0.36893 -0.3435,-0.42012 0,-0.22906 0.2399,0.13533 1.002,0.0899 1.6934,-0.10107 1.1584,-0.31986 1.283,-0.27922 1.5859,0.5176 0.4039,1.0623505 1.5963,1.5443905 4.086,1.6518805 1.8059,0.0779 1.9223,0.14051 2.2807,1.2259404 0.2077,0.62907 0.5783,1.26407 0.8236,1.41111 0.6352,0.38079 1.3854,2.69663 0.9233,2.85062 -0.4668,0.15561 -0.4756,0.76807 -0.011,0.76807 0.1941,0 0.3528,-0.17572 0.3528,-0.39053 z m 791.63331,0.25189 c 0,-0.0763 -0.23812,-0.23001 -0.52916,-0.3417 -0.29104,-0.11169 -0.52917,-0.0493 -0.52917,0.13864 0,0.18792 0.23813,0.3417 0.52917,0.3417 0.29104,0 0.52916,-0.0624 0.52916,-0.13864 z m -529.166712,-0.9197 c 0,-0.38805 -0.1417,-0.70555 -0.315,-0.70555 -0.3966,0 -0.7664,0.91761 -0.4838,1.20022 0.4246,0.42467 0.7988,0.19297 0.7988,-0.49467 z m 326.672272,0.35278 c 0,-0.19403 -0.15875,-0.35278 -0.35278,-0.35278 -0.19403,0 -0.35278,0.15875 -0.35278,0.35278 0,0.19403 0.15875,0.35278 0.35278,0.35278 0.19403,0 0.35278,-0.15875 0.35278,-0.35278 z m -595.48887,-0.72637 c 0,-0.18259 -0.1588,-0.33196 -0.3528,-0.33196 -0.194,0 -0.3528,0.24751 -0.3528,0.54998 0,0.30251 0.1588,0.45187 0.3528,0.33196 0.194,-0.11991 0.3528,-0.36741 0.3528,-0.54998 z m 433.40197,-0.66128 c -0.12788,-0.20694 -0.40135,-0.37624 -0.60769,-0.37624 -0.23393,0 -0.20715,0.20243 0.0711,0.53771 0.48383,0.583 0.91627,0.45289 0.53657,-0.16147 z m 388.07793,-0.62509 c 0.13236,-0.70555 0.42753,-1.16226 0.75114,-1.16226 0.43388,0 0.45138,-0.0985 0.0939,-0.52916 -0.24155,-0.29105 -0.97536,-0.52917 -1.63068,-0.52917 -0.65535,0 -1.19154,-0.1439 -1.19154,-0.31976 0,-0.17586 -0.3175,-0.23671 -0.70556,-0.13522 -0.38805,0.10146 -0.70555,0.32473 -0.70555,0.49611 0,0.17142 -0.20881,0.31165 -0.46405,0.31165 -0.32519,0 -0.43652,0.44862 -0.37204,1.4993 0.0506,0.82462 0.10069,1.52679 0.11127,1.56041 0.0106,0.0335 0.89133,0.0407 1.95714,0.0159 1.90024,-0.0445 1.94215,-0.068 2.15593,-1.20762 z m -553.361702,0.41671 c 0.2454,-0.29574 0.3511,-0.63282 0.2347,-0.74913 -0.3612,-0.36128 -1.3002,0.17787 -1.3002,0.74659 0,0.69095 0.4932,0.69215 1.0655,0.004 z m -256.653998,-1.22305 c 0.256,-0.80638 -0.068,-1.52248 -0.5525,-1.2228 -0.4281,0.26455 -0.4275,1.92522 7e-4,1.92522 0.181,0 0.4293,-0.31609 0.5519,-0.70242 z m 259.469098,0.20211 c 0,-0.0811 -0.096,-0.39864 -0.2141,-0.70556 -0.3025,-0.78825 -0.8442,-0.69356 -0.8442,0.14753 0,0.39197 0.2352,0.70556 0.5291,0.70556 0.2911,0 0.5292,-0.0664 0.5292,-0.14753 z m 462.138902,-0.18444 c 0,-0.4162 -0.68806,-0.86148 -0.94075,-0.60878 -0.2527,0.25269 0.19258,0.94075 0.60879,0.94075 0.1826,0 0.33196,-0.14937 0.33196,-0.33197 z m -458.6748,-1.16374 c -0.1456,-1.02094 -1.3474,-1.3094004 -1.3474,-0.32346 0,0.6387 0.4023,1.0117 1.171,1.08578 0.159,0.0152 0.2384,-0.32773 0.1764,-0.76232 z M 497.79289,9.9783286 c -0.7686,-0.58229 -1.53536,-0.66452 -1.53536,-0.16467 0,0.1940204 0.29549,0.3527704 0.65663,0.3527704 0.52101,0 0.62268,0.20038 0.49219,0.97014 l -0.16446,0.97014 0.60222,-0.81668 c 0.57087,-0.77417 0.56822,-0.84243 -0.0512,-1.3117004 z m -8.86725,0.4762204 c -0.53886,-0.5388704 -0.93651,-0.14125 -0.63764,0.63761 0.17649,0.45988 0.32949,0.50542 0.64332,0.19159 0.31384,-0.31383 0.3125,-0.51103 -0.006,-0.8292 z m 68.53884,0.77022 c -0.11991,-0.19403 -0.36742,-0.35278 -0.54998,-0.35278 -0.1826,0 -0.33197,0.15875 -0.33197,0.35278 0,0.19402 0.24751,0.35277 0.54998,0.35277 0.30251,0 0.45188,-0.15875 0.33197,-0.35277 z m 96.13194,-0.49142 c 0,-0.59817 -0.95405,-1.0210504 -1.24424,-0.5515 -0.11469,0.18556 -0.11039,0.49611 0.01,0.69014 0.32597,0.52744 1.23472,0.42541 1.23472,-0.13864 z M 208.39082,9.9692286 c 0,-0.27961 -0.1587,-0.50835 -0.3527,-0.50835 -0.1941,0 -0.3528,0.32688 -0.3528,0.7263704 0,0.39952 0.1587,0.62826 0.3528,0.50835 0.194,-0.11991 0.3527,-0.44679 0.3527,-0.7263704 z m 286.57883,0.3848804 c 0.10932,-0.28483 0.0612,-0.6028304 -0.10679,-0.7066804 -0.47999,-0.29665 -1.42755,0.19 -1.42755,0.7331404 0,0.65444 1.28153,0.63235 1.53434,-0.0265 z M 206.27422,9.4400586 c 0,-0.736 -0.519,-0.91923 -0.8924,-0.31506 -0.32,0.51777 0.1063,1.4856204 0.5371,1.2193704 0.1954,-0.12079 0.3553,-0.5277204 0.3553,-0.9043104 z m 54.32775,0.7263704 c 0,-0.1940204 -0.15875,-0.3527704 -0.35278,-0.3527704 -0.19402,0 -0.35277,0.15875 -0.35277,0.3527704 0,0.19403 0.15875,0.35278 0.35277,0.35278 0.19403,0 0.35278,-0.15875 0.35278,-0.35278 z M 657.02906,9.9227286 c 0.21565,-0.64695 -2.62957,-1.40772 -3.17938,-0.85012 -0.33824,0.34308 -0.29936,0.53203 0.18278,0.88826 0.75656,0.5590104 2.80624,0.5329404 2.9966,-0.0381 z m -8.37153,-0.46185 c 0,-0.19403 0,-0.45773 0,-0.586 0,-0.12824 -0.46407,-0.2473 -1.03328,-0.26458 -0.96383,-0.0293 -0.99653,0.0109 -0.47611,0.58599 0.60815,0.67191 1.50777,0.8297704 1.50777,0.26459 z M 82.801918,9.1080986 c 0,-0.19403 -0.07,-0.35278 -0.1555,-0.35278 -0.086,0 -0.2537,0.15875 -0.3736,0.35278 -0.1199,0.19403 -0.05,0.35278 0.1556,0.35278 0.2054,0 0.3735,-0.15875 0.3735,-0.35278 z m 406.304212,-0.39804 c 0.29199,-0.29199 0.29404,-0.56462 0.008,-1.0231605 -0.43336,-0.69388 -1.32295,-0.5431 -1.32295,0.22423 0,0.2702605 -0.15875,0.4914105 -0.35278,0.4914105 -0.19403,0 -0.35278,0.15875 -0.35278,0.35278 0,0.48147 1.5283,0.44725 2.02082,-0.0453 z m -722.04031,-0.30752 c 0,-0.19402 -0.1587,-0.3527705 -0.3528,-0.3527705 -0.194,0 -0.3527,0.1587505 -0.3527,0.3527705 0,0.19403 0.1587,0.35278 0.3527,0.35278 0.1941,0 0.3528,-0.15875 0.3528,-0.35278 z m 878.76949,-0.17638 c 0,-0.2939705 -0.31358,-0.5291705 -0.70555,-0.5291705 -0.86904,0 -0.93335,0.5942905 -0.0882,0.8151605 0.33955,0.0887 0.65705,0.17974 0.70556,0.20225 0.0485,0.0226 0.0882,-0.1972 0.0882,-0.48824 z M 89.504718,7.3442081 c 0,-0.19403 -0.1587,-0.35278 -0.3528,-0.35278 -0.194,0 -0.3527,0.15875 -0.3527,0.35278 0,0.19403 0.1587,0.35278 0.3527,0.35278 0.1941,0 0.3528,-0.15875 0.3528,-0.35278 z m -380.264498,-2.50641 c -0.1859,-0.46475 -0.348,-0.65952 -0.3603,-0.43286 -0.03,0.55054 0.381,1.59508 0.5579,1.4182 0.077,-0.0772 -0.012,-0.52063 -0.1976,-0.98534 z m 66.4395,0.78965 c 0.1039,-0.16806 -0.1248,-0.58956 -0.5083,-0.93659 -0.3835,-0.34706 -0.6972,-0.92389 -0.6972,-1.28188 0,-0.35797 -0.1588,-0.65088 -0.3528,-0.65088 -0.4079,0 -0.4415,0.52652 -0.1323,2.07257 0.2137,1.0687 1.2274,1.5464 1.6906,0.79678 z m 65.1167,-0.0471 c 0,-0.19403 -0.07,-0.35277 -0.1556,-0.35277 -0.085,0 -0.2537,0.15874 -0.3736,0.35277 -0.1199,0.19403 -0.05,0.35278 0.1556,0.35278 0.2055,0 0.3736,-0.15875 0.3736,-0.35278 z m -1.492,-0.63941 c 0.077,-0.2304 -0.1117,-0.41892 -0.4189,-0.41892 -0.3072,0 -0.5586,0.25135 -0.5586,0.55855 0,0.62301 0.7595,0.51449 0.9775,-0.13963 z m -11.7278,-0.3508 c -0.1087,-0.10862 -0.3933,-2.1e-4 -0.6326,0.24088 -0.3458,0.3484 -0.3053,0.38894 0.1975,0.19748 0.3479,-0.13247 0.5437,-0.32974 0.4351,-0.43836 z m 27.5073,0.28466 c -0.1199,-0.19403 -0.3674,-0.35278 -0.55,-0.35278 -0.1826,0 -0.332,0.15875 -0.332,0.35278 0,0.19403 0.2475,0.35278 0.55,0.35278 0.3025,0 0.4519,-0.15875 0.332,-0.35278 z m 636.23472,0.1972 c 0,-0.0855 -0.15875,-0.25368 -0.35278,-0.37359 -0.19402,-0.11991 -0.35277,-0.0499 -0.35277,0.15557 0,0.20546 0.15875,0.3736 0.35277,0.3736 0.19403,0 0.35278,-0.07 0.35278,-0.15558 z m -637.18952,-1.4405 0.9548,-0.89051 -0.882,0.0968 c -0.9404,0.10319 -1.0411,-0.24031 -0.5355,-1.82707 0.2604,-0.81706998 0.242,-0.83166998 -0.3283,-0.26133998 -0.3323,0.33227998 -0.7392,0.52066998 -0.9044,0.41863998 -0.1651,-0.10205 -0.5503,0.17153 -0.8559,0.60795 -0.5238,0.74778 -0.4998,0.84864 0.4168,1.74963 0.5349,0.52589 1.0192,0.9652 1.0762,0.97628 0.057,0.0113 0.5332,-0.38054 1.0583,-0.87034 z m -142.4494,0.18496 c 0,-0.19402 -0.07,-0.35277 -0.1556,-0.35277 -0.086,0 -0.2536,0.15875 -0.3736,0.35277 -0.1199,0.19403 -0.05,0.35278 0.1556,0.35278 0.2055,0 0.3736,-0.15875 0.3736,-0.35278 z m 136.7896,-0.24317 c -0.3395,-0.0888 -0.6174,-0.39916 -0.6174,-0.68985 0,-0.29066 -0.2575,-0.78599 -0.5722,-1.10067 -0.5277,-0.52775 -0.609,-0.52186 -1.046,0.0759 -0.4231,0.57852 -0.3522,0.71367 0.6604,1.2597 0.6238,0.33644 1.3724,0.61274 1.6634,0.61401 0.339,0 0.3074,-0.0557 -0.088,-0.15904 z m 637.55766,-0.46238 c 0,-0.38806 -0.15875,-0.70556 -0.35278,-0.70556 -0.19403,0 -0.35278,0.3175 -0.35278,0.70556 0,0.38805 0.15875,0.70555 0.35278,0.70555 0.19403,0 0.35278,-0.3175 0.35278,-0.70555 z m -699.28616,-0.90375 c -0.1183,-0.11825 -0.4052,0.15575 -0.6376,0.60897 -0.404,0.78768 -0.3945,0.79713 0.215,0.21498 0.3507,-0.33493 0.5408,-0.7057 0.4226,-0.82395 z m 36.7695,1.10095 c 0,-0.0855 -0.1588,-0.25368 -0.3528,-0.37359 -0.194,-0.11991 -0.3528,-0.0499 -0.3528,0.15557 0,0.20546 0.1588,0.3736 0.3528,0.3736 0.194,0 0.3528,-0.07 0.3528,-0.15558 z m -110.7723,-2.63407998 c 0,-0.9179 0.1837,-0.92315 1.1396,-0.0325 1.0166,0.94709998 1.3823,0.88938998 0.9851,-0.15543 -0.2676,-0.70383 -0.1705,-1.00969 0.5318,-1.67570002 1.2283,-1.1648 1.1246,-1.72279 -0.2752,-1.48092 -0.6306,0.10897 -1.3651,0.26648 -1.6322,0.35006 -0.2671,0.0836 -0.6968,-0.0233 -0.9547,-0.23728 -1.0717,-0.88942 -1.444,1.085 -0.4452,2.36082002 0.4235,0.54088 -0.01,1.54400998 -0.6648,1.54400998 -0.4578,0 -0.465,0.0858 -0.05,0.5969 0.329,0.40555 0.3428,0.51195 0.043,0.33192 -0.4512,-0.27107 -0.6203,0.18539 -0.2178,0.58791 0.3435,0.34346 1.5407,-1.35809 1.5407,-2.18972998 z m 7.4084,1.37854998 c 0,-0.19403 -0.1588,-0.35278 -0.3528,-0.35278 -0.194,0 -0.3528,0.15875 -0.3528,0.35278 0,0.19402 0.1588,0.35277 0.3528,0.35277 0.194,0 0.3528,-0.15875 0.3528,-0.35277 z m 95.7323,-1.05079 c 0.5108,-0.77194998 0.9288,-1.57638998 0.9288,-1.78762998 0,-0.22024002 0.2934,-0.29101002 0.6875,-0.16591 0.4474,0.14199 0.9482,-0.0425 1.4341,-0.52839002 0.5669,-0.56688 0.9958,-0.69183 1.7819,-0.51918 0.9261,0.20341 1.0354,0.13589 1.0354,-0.63938 0,-1.13781 0.6565,-1.64147 1.9494,-1.49546 0.5771,0.0652 1.251,-0.0466 1.4977,-0.24825 1.1924,-0.97494 3.8188,-0.61711 5.4634,0.7444 0.579,0.47939 0.5813,0.55647 0.034,1.16173 -0.3227,0.35655 -1.0214,0.6483 -1.5526,0.6483 -0.5313,0 -1.0493,0.21713 -1.1511,0.48249 -0.2287,0.59599002 -2.1009,0.99473002 -2.3998,0.51111002 -0.1393,-0.22550002 -0.4902,-0.18320002 -0.971,0.11709 -1.0094,0.63034 -0.9547,1.07008 0.1001,0.80535 0.6383,-0.16019 0.9517,-0.0296 1.2452,0.51887 0.2978,0.55632998 0.5385,0.65344998 0.9991,0.40300998 0.3338,-0.18142998 1.6349,-0.63203998 2.8914,-1.00124998 2.181,-0.64097 2.2969,-0.73099 2.5579,-1.98766002 0.199,-0.95751 0.1292,-1.52238 -0.256,-2.07225 -0.2912,-0.41578 -0.5284,-0.99847 -0.5271,-1.29484 0,-0.32374 0.2613,-0.14608 0.651,0.44493 0.5842,0.88603 0.6957,0.9272 1.1214,0.41419 0.3981,-0.4796 0.3828,-0.71878 -0.097,-1.51299 -0.612,-1.01392 -2.0309,-1.4961 -2.0309,-0.69017 0,0.26327 -0.3175,0.50256 -0.7056,0.53177 -0.388,0.0293 -0.7055,-0.14954 -0.7055,-0.39726 0,-0.24776 -0.4366,-1.02062 -0.9702,-1.71753 -0.7853,-1.02571 -1.1381,-1.22912 -1.8521,-1.06776 -1.0741,0.24279 -2.1166,1.10307 -2.1166,1.74675 0,0.8111 -2.7217,0.61591 -3.1731,-0.22754 -0.2067,-0.38616 -0.5695,-0.66397 -0.8062,-0.61737 -0.2545,0.0501 -0.3961,-0.23971 -0.3464,-0.70908 0.09,-0.8467 -0.7835,-1.1354101 -1.0669,-0.35278 -0.1264,0.34904 -0.3233,0.3441 -0.9446,-0.0236 -0.7556,-0.44736 -0.776,-0.42432 -0.5472,0.61736 0.1898,0.86399 0.1212,1.08207 -0.3404,1.08207 -0.3179,0 -0.4756,0.1657 -0.3504,0.36823 0.1252,0.20253 0.029,0.60692 -0.2126,0.89863 -0.3117,0.37554 -0.5125,0.41349 -0.6877,0.13004 -0.1361,-0.22024 -0.7851,-0.42619 -1.4422,-0.4577 l -1.1948,-0.0574 0.032,1.66155 c 0.017,0.91387 -0.1017,1.57917 -0.2646,1.47849 -0.1629,-0.10068 -0.3015,0.0247 -0.3079,0.27873 -0.01,0.26903 -0.2882,0.13046 -0.674,-0.33196 -0.3641,-0.43656 -0.7557,-0.79375 -0.8702,-0.79375 -0.5256,0 -0.1011,0.80285 1.0529,1.99111 0.9359,0.96372 1.2027,1.48819 1.0353,2.03489002 -0.1241,0.40506 -0.3197,1.03939 -0.4347,1.40956 -0.1725,0.55530998 -0.073,0.63757998 0.5667,0.47021998 0.6421,-0.16789 0.7388,-0.0863 0.5611,0.47346 -0.3652,1.1509 0.3981,0.74669 1.3735,-0.72725 z m -0.636,-0.81649998 c 0.1325,-0.34791 0.3297,-0.5437 0.4383,-0.43512 0.1086,0.10862 3e-4,0.39328 -0.2408,0.6326 -0.3485,0.34579 -0.389,0.3053 -0.1975,-0.19748 z m 0.5119,-1.57230002 c 0,-0.43656 0.1533,-0.79375 0.3473,-0.79375 0.442,0 0.442,0.37437 0,1.05834 -0.2765,0.42791002 -0.343,0.37726002 -0.3473,-0.26459 z m 2.9932,-5.37986 c -0.1199,-0.19403 -0.05,-0.35278 0.1555,-0.35278 0.2055,0 0.3736,0.15875 0.3736,0.35278 0,0.19403 -0.07,0.35278 -0.1555,0.35278 -0.086,0 -0.2537,-0.15875 -0.3736,-0.35278 z m -24.8709,8.46667 c 0,-0.19403 -0.07,-0.35278 -0.1555,-0.35278 -0.086,0 -0.2537,0.15875 -0.3736,0.35278 -0.1199,0.19403 -0.05,0.35278 0.1555,0.35278 0.2055,0 0.3736,-0.15875 0.3736,-0.35278 z m 1.5044,-1.62199998 c 0.116,-0.11596 0.1204,-0.4468 0.01,-0.73512 -0.1639,-0.42732002 -0.2563,-0.43727002 -0.4994,-0.0537 -0.52,0.82025 -0.1453,1.42382 0.4897,0.78882 z m -9.6183,-1.73144002 c 0,-0.24465 -0.33,-0.53114 -0.7334,-0.63662 -0.5508,-0.14404 -0.6825,-0.0592 -0.5291,0.3405 0.1123,0.29274 0.2042,0.77685 0.2042,1.07576002 0,0.44313 0.098,0.46242 0.5292,0.10435 0.291,-0.24154002 0.5291,-0.63934002 0.5291,-0.88399002 z m 703.06265,0.67024002 c 0.0841,-0.0829 -0.0548,-0.34656002 -0.30868,-0.58589002 -0.35402,-0.33369 -0.49767,-0.33694 -0.61662,-0.0138 -0.0853,0.23164 -0.38294,0.33373 -0.66146,0.22684 -0.71226,-0.2733 -1.65732,0.15148 -1.3703,0.61591002 0.21791,0.35257 2.54745,0.16119 2.95706,-0.24292 z M -218.19958,-2.1817819 c 0.1419,-0.75015 -2.6892,-1.96508 -3.2311,-1.38659 -0.2874,0.30688 -0.2741,0.4603 0.05,0.57915 0.2426,0.0889 0.441,0.37338 0.441,0.63207 0,0.96295 2.5601,1.12681 2.7401,0.17537 z m 1.4932,-1.36691 c 0,-0.42383 -0.7221,-0.96615 -1.6757,-1.2585 -0.5473,-0.16778 -0.7937,-0.0976 -0.7937,0.22596 0,0.25809 0.3571,0.64618 0.7937,0.8624 1.0081,0.49925 1.6757,0.56705 1.6757,0.17014 z m -214.0656,-1.17207 c -0.3292,-0.32925 -0.4233,-0.23519 -0.4233,0.42334 0,0.65853 0.094,0.75258 0.4233,0.42333 0.3293,-0.32925 0.3293,-0.51742 0,-0.84667 z m 278.7297,-0.86765 c 0.1551,-0.26011 0.5318,-0.4729 0.8369,-0.4729 0.46,0 0.4776,-0.093 0.1033,-0.54413 -0.2818,-0.33955 -0.5763,-0.41945 -0.7832,-0.21255 -0.2069,0.20694 -0.8496,0.0551 -1.7093,-0.40382 -1.3597,-0.72577 -1.3845,-0.72648 -1.8947,-0.052 -0.7875,1.04116 -0.6461,1.55448 0.569,2.06541 1.2204,0.51312 2.4414,0.3519 2.878,-0.37997 z m -276.0735,-0.33327 c -0.1173,-0.11723 -0.4215,-0.12976 -0.6762,-0.0279 -0.2814,0.1126 -0.1978,0.19621 0.2131,0.21314 0.3719,0.0152 0.5803,-0.0681 0.4631,-0.18531 z m 10.3261,-0.6688 c 0,-0.29104 -0.2416,-0.52917 -0.5368,-0.52917 -0.9792,0 -1.3824,-1.55624 -0.7379,-2.84818 0.511,-1.0243301 0.5156,-1.2123901 0.042,-1.7357101 -0.2921,-0.32282 -0.5312,-0.68371 -0.5312,-0.80196 0,-0.11829 -0.4762,-0.73646 -1.0583,-1.37376 -0.5821,-0.63733 -1.0583,-0.97398 -1.0583,-0.74817 0,0.22582 0.1592,0.50895 0.3537,0.62922 0.2341,0.14467 0.2259,0.45758 -0.024,0.9253 -0.2802,0.52352 -0.2606,0.84846 0.076,1.25359 0.2497,0.30082 0.4591,1.44159 0.4655,2.5351001 0.01,1.67305 0.1094,1.98042 0.6289,1.93918 0.3395,-0.0268 0.6174,0.18087 0.6174,0.46179 0,0.28095 0.1266,0.43254 0.2814,0.33687 0.1548,-0.0957 0.512,-0.0282 0.7937,0.15017 0.674,0.42637 0.6887,0.42224 0.6887,-0.19427 z m 229.8347,-0.17639 c 0.1199,-0.19403 0.05,-0.35278 -0.1556,-0.35278 -0.2055,0 -0.3736,0.15875 -0.3736,0.35278 0,0.19403 0.07,0.35278 0.1556,0.35278 0.086,0 0.2537,-0.15875 0.3736,-0.35278 z m 31.5736,-0.45861 c 0,-0.44626 0.1879,-0.99924 0.4175,-1.22883 0.6146,-0.61461 0.015,-1.00143 -0.7815,-0.50405 -0.9822,0.61334 -1.0491,0.54441 -0.5269,-0.54254 0.8969,-1.8668301 0.9795,-2.5458201 0.3393,-2.7914201 -0.3301,-0.12668 -0.8967,-0.0452 -1.259,0.18111 -0.5681,0.35476 -0.6645,0.3017 -0.6998,-0.3853 -0.033,-0.64989 -0.072,-0.67652 -0.2089,-0.1445 -0.1205,0.46736 -0.4039,0.6072 -1,0.49322 -0.4576,-0.0874 -0.821,-0.0635 -0.8076,0.0533 0.098,0.85171 -0.1263,1.12052 -0.7648,0.91789 -0.7207,-0.22878 -0.9907,0.31125 -0.3527,0.70555 0.194,0.11991 0.3552,0.6452401 0.3581,1.1673501 0,0.52214 0.1401,1.16169 0.3046,1.42127 0.3588,0.56606 3.2117,0.79989 3.8352,0.31429 0.3221,-0.2509 0.4409,-0.14171 0.4409,0.4053 0,0.4118 0.1588,0.74874 0.3528,0.74874 0.1941,0 0.3528,-0.36513 0.3528,-0.81139 z m -1.5875,-3.0691701 c 0.1199,-0.19402 0.288,-0.35277 0.3736,-0.35277 0.086,0 0.1556,0.15875 0.1556,0.35277 0,0.19403 -0.1681,0.3527801 -0.3736,0.3527801 -0.2055,0 -0.2755,-0.1587501 -0.1556,-0.3527801 z m -1.9403,-0.35277 c 0,-0.19403 0.1681,-0.35278 0.3736,-0.35278 0.2055,0 0.2755,0.15875 0.1556,0.35278 -0.1199,0.19402 -0.288,0.35277 -0.3736,0.35277 -0.086,0 -0.1556,-0.15875 -0.1556,-0.35277 z m -6.5492,3.2119701 c 0.1073,-0.17371 -0.042,-0.40686 -0.332,-0.51809 -0.3202,-0.12288 -0.5271,0 -0.5271,0.3158 0,0.57059 0.5513,0.70037 0.8591,0.20229 z m -250.4265,-0.35278 c -0.1074,-0.17371 0.042,-0.40686 0.3319,-0.51809 0.2899,-0.11127 0.5272,-0.3925 0.5272,-0.62495 0,-0.23244 -0.1096,-0.31305 -0.2436,-0.17914 -0.1339,0.13395 -0.4319,-0.19678 -0.6623,-0.73494 l -0.4187,-0.9784601 -0.3918,0.9818101 c -0.3922,0.98309 0.055,2.36958 0.7637,2.36958 0.1588,0 0.2009,-0.1421 0.093,-0.31581 z m 264.2458,-1.35989 c 0.7156,-0.9426901 0.5791,-1.3355401 -0.2145,-0.61736 -0.6911,0.6254 -0.9279,1.23472 -0.4799,1.23472 0.1241,0 0.4366,-0.27781 0.6944,-0.61736 z m -15.7367,-0.46178 c 0,-0.1826 -0.2382,-0.33197 -0.5292,-0.33197 -0.5455,0 -0.7009,0.41628 -0.3036,0.81354 0.2819,0.28187 0.8328,-0.0367 0.8328,-0.48157 z m -257.3514,0.0208 c 0.1199,-0.19403 0.05,-0.35278 -0.1556,-0.35278 -0.2055,0 -0.3736,0.15875 -0.3736,0.35278 0,0.19403 0.07,0.35278 0.1556,0.35278 0.086,0 0.2537,-0.15875 0.3736,-0.35278 z m 247.2563,-1.3229201 c 0.1197,-0.33955 0.3154,-0.83121 0.4347,-1.09259 0.1741,-0.38128 0.069,-0.39627 -0.5294,-0.0758 -0.4105,0.21967 -0.7464,0.71134 -0.7464,1.09259 0,0.85968 0.5472,0.90896 0.8411,0.0758 z m -2.2522,-0.0882 c 0,-0.19403 -0.1587,-0.35278 -0.3527,-0.35278 -0.1941,0 -0.3528,0.15875 -0.3528,0.35278 0,0.19403 0.1587,0.35278 0.3528,0.35278 0.194,0 0.3527,-0.15875 0.3527,-0.35278 z m -7.853,-2.7111 c 0.5462,-1.1762 0.4223,-1.30485 -0.7444,-0.77325 -1.0367,0.47233 -1.1185,0.6828 -0.5042,1.29713 0.6016,0.60159 0.7561,0.53675 1.2486,-0.52388 z m -239.9187,-1.68342 c -0.1149,-0.2994 -0.3782,-0.54437 -0.5852,-0.54437 -0.2609,0 -0.2555,0.2256 0.017,0.73575 0.4379,0.81824 0.8959,0.66386 0.5677,-0.19138 z m 246.8341,0.35553 c 0.1311,-0.34167 0.027,-0.44612 -0.3151,-0.31503 -0.558,0.21414 -0.7033,0.82624 -0.1961,0.82624 0.1733,0 0.4033,-0.23005 0.5112,-0.51121 z m 33.3932,0.15843 c 0,-0.19403 -0.1681,-0.35278 -0.3736,-0.35278 -0.2055,0 -0.2755,0.15875 -0.1556,0.35278 0.1199,0.19403 0.2881,0.35278 0.3736,0.35278 0.086,0 0.1556,-0.15875 0.1556,-0.35278 z m -22.0486,-0.70555 c 0.1199,-0.19403 -0.039,-0.35278 -0.3528,-0.35278 -0.3139,0 -0.4727,0.15875 -0.3528,0.35278 0.1199,0.19402 0.2787,0.35277 0.3528,0.35277 0.074,0 0.2329,-0.15875 0.3528,-0.35277 z m -252.3459,-0.24083 c -0.357,-0.14284 -0.3167,-0.35793 0.1764,-0.94227 l 0.6389,-0.75717 -0.7937,0.67204 c -0.9514,0.80546 -1.0186,1.2784 -0.1764,1.2404 0.4032,-0.0183 0.4569,-0.0921 0.1548,-0.213 z m 265.2223,-2.22861 c 0,-0.19403 -0.1588,-0.35278 -0.3528,-0.35278 -0.194,0 -0.3528,0.15875 -0.3528,0.35278 0,0.19403 0.1588,0.35278 0.3528,0.35278 0.194,0 0.3528,-0.15875 0.3528,-0.35278 z m -15.6638,-2.73403 c -0.222,-1.08941 0.7525,-2.55763 1.6974,-2.55763 0.3084,0 0.5608,-0.23813 0.5608,-0.52917 0,-0.35479 -0.3548,-0.52917 -1.0767,-0.52917 -0.8791,0 -1.1443,0.19417 -1.4456,1.05834 -0.4192,1.20269 -0.5978,1.2647 -1.5554,0.54038 -1.5271,-1.15503 -2.1847,-0.18909 -0.773,1.13542 0.4366,0.40961 0.9985,0.99384 1.2487,1.29836 0.7755,0.94389 1.5707,0.69744 1.3438,-0.41653 z m 8.5994,-3.41312 c -0.4745,-0.47449 -0.8274,0.006 -0.545,0.74217 0.2027,0.52818 0.2874,0.5443 0.5581,0.10637 0.1925,-0.31144 0.1873,-0.64816 -0.013,-0.84854 z m -6.976,-1.99775 c -0.1439,-0.98015 -0.2143,-1.03497 -0.7024,-0.54687 -0.4464,0.44647 -0.4621,0.63927 -0.089,1.08934 0.6972,0.84007 0.9667,0.65522 0.791,-0.54247 z m 6.3815,-1.3801 c -0.1015,-0.38805 -0.4438,-0.69303 -0.7607,-0.67772 -0.3658,0.0176 -0.4152,0.0928 -0.1353,0.20581 0.2425,0.0979 0.441,0.40284 0.441,0.67769 0,0.27488 0.1439,0.49978 0.3197,0.49978 0.1759,0 0.2368,-0.3175 0.1353,-0.70556 z m -0.6314,-1.76389 c 0.1199,-0.19402 -0.039,-0.35277 -0.3528,-0.35277 -0.3139,0 -0.4727,0.15875 -0.3528,0.35277 0.12,0.19403 0.2787,0.35278 0.3528,0.35278 0.074,0 0.2329,-0.15875 0.3528,-0.35278 z m 853.36946,50.094451 c -0.11991,-0.19403 -0.0593,-0.35278 0.13476,-0.35278 0.19403,0 0.45089,0.15875 0.5708,0.35278 0.1199,0.19402 0.0593,0.35277 -0.13477,0.35277 -0.19402,0 -0.45088,-0.15875 -0.57079,-0.35277 z m -208.27567,-2.29306 c -0.21847,-0.58208 -0.61288,-1.45521 -0.87647,-1.94028 -0.26356,-0.48507 -0.58004,-1.54523 -0.70326,-2.35592 -0.29517,-1.94232 0.32219,-2.56395 2.62364,-2.64177 0.95627,-0.0325 2.00508,-0.072 2.3307,-0.0882 0.82744,-0.0411 1.35636,1.95601 0.62625,2.3646 -0.46189,0.25848 -0.45262,0.42108 0.075,1.31417 0.5896,0.99815 0.58247,1.03875 -0.34558,1.96681 -0.52119,0.52119 -0.94763,1.08475 -0.94763,1.25232 0,0.16757 -0.46302,0.30466 -1.02895,0.30466 -0.56589,0 -1.1026,0.19844 -1.19267,0.44097 -0.09,0.24254 -0.34247,-0.0353 -0.56099,-0.61736 z m 54.64094,-0.1972 c 0,-0.20549 0.15875,-0.27549 0.35278,-0.15558 0.19403,0.11991 0.35278,0.28805 0.35278,0.3736 0,0.0856 -0.15875,0.15557 -0.35278,0.15557 -0.19403,0 -0.35278,-0.16813 -0.35278,-0.37359 z m 137.1164,-0.24377 c -0.0857,-0.14552 -0.0208,-0.62177 0.14422,-1.05833 0.30688,-0.81199 1.50936,-1.08959 1.91022,-0.44098 0.11991,0.19403 -0.0109,0.35278 -0.29083,0.35278 -0.27986,0 -0.59185,0.3175 -0.69331,0.70556 -0.18366,0.70224 -0.7734,0.94519 -1.0703,0.44097 z m 33.45166,-1.49931 c -0.11991,-0.19402 0.0296,-0.35277 0.33197,-0.35277 0.30247,0 0.54998,0.15875 0.54998,0.35277 0,0.19403 -0.14937,0.35278 -0.33197,0.35278 -0.18256,0 -0.43007,-0.15875 -0.54998,-0.35278 z m -17.81527,-0.37359 c 0,-0.20549 0.15875,-0.27548 0.35277,-0.15557 0.19403,0.11991 0.35278,0.28804 0.35278,0.37359 0,0.0856 -0.15875,0.15557 -0.35278,0.15557 -0.19402,0 -0.35277,-0.16813 -0.35277,-0.37359 z m -254.35279,-0.57488 c 0,-0.051 0.30226,-0.58985 0.67169,-1.19733 l 0.67173,-1.10455 -0.0353,1.24527 c -0.0275,0.97113 -0.1754,1.23472 -0.67169,1.19733 -0.35002,-0.0265 -0.63641,-0.0897 -0.63641,-0.14072 z m 4.94429,-0.37444 c 0.01,-0.48285 0.65839,-1.30588 0.86568,-1.09862 0.27788,0.27791 -0.16478,1.3632 -0.55605,1.3632 -0.17325,0 -0.31259,-0.11906 -0.30963,-0.26458 z m 5.90363,-0.33137 c -0.71723,-0.18743 -0.81516,-0.68978 -0.17639,-0.90477 0.64996,-0.21875 -0.34283,-1.3215 -1.18971,-1.3215 -0.36431,0 -0.66237,-0.11998 -0.66237,-0.26667 0,-0.48037 2.2643,-1.29416 3.61597,-1.29952 0.83298,-0.004 1.32292,-0.17156 1.32292,-0.45428 0,-0.56504 0.43705,-0.57636 0.98777,-0.0258 0.23284,0.23283 0.42577,0.27252 0.42873,0.0882 0.0138,-0.8452604 0.61105,-1.2791804 1.27025,-0.9225904 0.36555,0.19777 0.94245,0.4455204 1.282,0.5506204 0.33954,0.10509 0.61736,0.45363 0.61736,0.77452 0,0.48436 -0.0919,0.50715 -0.5412,0.13427 -0.43145,-0.35807 -0.70591,-0.361 -1.3534,-0.0145 -0.44668,0.23908 -1.0995,0.38206 -1.45065,0.31775 -0.84014,-0.15385 -1.11566,0.66072 -0.29023,0.85806 0.53816,0.12866 0.50016,0.20923 -0.24508,0.51971 -0.68086,0.28367 -1.0197,0.24596 -1.48618,-0.16541 -0.9881,-0.87147 -1.6831,-0.33271 -1.4471,1.12172 0.11187,0.68926 0.14292,1.23476 0.069,1.21225 -0.0739,-0.0226 -0.41215,-0.11352 -0.7517,-0.20224 z m 84.26422,-1.01833 c -0.29824,-0.77727 0.0293,-1.10483 0.56709,-0.56705 0.2958,0.2958 0.30776,0.52712 0.041,0.79393 -0.26681,0.2668 -0.44397,0.20069 -0.60805,-0.22688 z m 2.84819,-1.34344 c -0.11554,-0.3011 -0.0692,-0.63451 0.10294,-0.74091 0.45,-0.27813 0.71825,0.29955 0.38756,0.83464 -0.21904,0.3544 -0.32639,0.33387 -0.4905,-0.0937 z m 134.02031,-0.16994 c -0.15194,-0.24588 -0.18101,-0.54232 -0.0646,-0.65877 0.3157,-0.31574 0.65994,0.14862 0.48945,0.66018 -0.11952,0.3585 -0.2026,0.35821 -0.42489,0 z M 444.45268,9.0626486 c -0.22673,-0.36305 -0.60932,-0.66086 -0.85023,-0.66185 -0.24088,0 -0.89782,-0.3697105 -1.4599,-0.8194705 l -1.02189,-0.8177 1.47771,-0.73113 c 1.54164,-0.76271 2.78405,-0.70563 3.10967,0.14291 0.10491,0.27344 -0.10696,0.72464 -0.47085,1.00266 -0.5745,0.43896 -0.59193,0.55214 -0.13244,0.85962 0.68224,0.4564905 1.31131,0.4590005 1.59107,0.006 0.12185,-0.19721 0.3871,-0.25623 0.58942,-0.1312 0.20231,0.12502 0.5238,0.008 0.71444,-0.25883 0.26381,-0.37 0.29655,-0.33176 0.13695,0.16005 -0.11532,0.3554205 -0.20966,0.7869805 -0.20966,0.9590605 0,0.17209 -0.24461,0.21897 -0.54359,0.10425 -0.32558,-0.12492 -0.50243,-0.0365 -0.44097,0.22045 0.1785,0.74634 -2.02107,0.71529 -2.48973,-0.0353 z m 39.2848,0.3925 c 0.12185,-0.1972 0.36936,-0.2672 0.54998,-0.15558 0.48931,0.3024 0.39808,0.51411 -0.22158,0.51411 -0.3025,0 -0.45028,-0.16133 -0.3284,-0.35853 z M 638.0742,3.4428581 c 0,-0.20549 0.15875,-0.27548 0.35278,-0.15557 0.19403,0.11991 0.35278,0.28804 0.35278,0.37359 0,0.0856 -0.15875,0.15557 -0.35278,0.15557 -0.19403,0 -0.35278,-0.16813 -0.35278,-0.37359 z m 16.82404,-2.95514998 c -0.378,-0.28659 -0.49318,-0.5739 -0.28229,-0.70421 0.1959,-0.12107 0.5285,0.10181 0.73907,0.4953 0.44739,0.83597998 0.39931,0.85798998 -0.45678,0.20891 z M -411.61608,-14.880772 c 0.1199,-0.19403 0.288,-0.35278 0.3736,-0.35278 0.086,0 0.1555,0.15875 0.1555,0.35278 0,0.19403 -0.1681,0.35278 -0.3736,0.35278 -0.2054,0 -0.2754,-0.15875 -0.1555,-0.35278 z m -4.2334,-8.11389 c 0.12,-0.19402 0.4562,-0.35277 0.7472,-0.35277 0.2911,0 0.4311,0.15875 0.3112,0.35277 -0.1199,0.19403 -0.4562,0.35278 -0.7472,0.35278 -0.2911,0 -0.4311,-0.15875 -0.3112,-0.35278 z"
       id="path826"
       inkscape:connector-curvature="0" />
  </g>
</svg>
