<?xml version="1.0" encoding="UTF-8" standalone="no"?>
<!-- Created with Inkscape (http://www.inkscape.org/) -->

<svg
   xmlns:osb="http://www.openswatchbook.org/uri/2009/osb"
   xmlns:dc="http://purl.org/dc/elements/1.1/"
   xmlns:cc="http://creativecommons.org/ns#"
   xmlns:rdf="http://www.w3.org/1999/02/22-rdf-syntax-ns#"
   xmlns:svg="http://www.w3.org/2000/svg"
   xmlns="http://www.w3.org/2000/svg"
   xmlns:xlink="http://www.w3.org/1999/xlink"
   xmlns:sodipodi="http://sodipodi.sourceforge.net/DTD/sodipodi-0.dtd"
   xmlns:inkscape="http://www.inkscape.org/namespaces/inkscape"
   version="1.1"
   id="svg2"
   width="600.31842"
   height="786.01318"
   viewBox="0 0 600.31842 786.01317"
   sodipodi:docname="me-nofeatures.svg"
   inkscape:version="0.92.4 (fd57863, 2020-04-02)"
   inkscape:export-filename="/home/mhaslam/Pictures/meavatar.svg.png"
   inkscape:export-xdpi="100"
   inkscape:export-ydpi="100">
  <metadata
     id="metadata8">
    <rdf:RDF>
      <cc:Work
         rdf:about="">
        <dc:format>image/svg+xml</dc:format>
        <dc:type
           rdf:resource="http://purl.org/dc/dcmitype/StillImage" />
        <dc:title></dc:title>
      </cc:Work>
    </rdf:RDF>
  </metadata>
  <defs
     id="defs6">
    <linearGradient
       id="linearGradient4723"
       osb:paint="solid"
       gradientTransform="translate(1791.6373,1260.4083)">
      <stop
         style="stop-color:#48302b;stop-opacity:1;"
         offset="0"
         id="stop4721" />
    </linearGradient>
    <linearGradient
       id="linearGradient4717"
       osb:paint="solid">
      <stop
         style="stop-color:#9be6eb;stop-opacity:1;"
         offset="0"
         id="stop4715" />
    </linearGradient>
    <linearGradient
       id="linearGradient4711"
       osb:paint="solid"
       gradientTransform="translate(2370.5636,526.87947)">
      <stop
         style="stop-color:#4b8b9c;stop-opacity:1;"
         offset="0"
         id="stop4709" />
    </linearGradient>
    <linearGradient
       id="linearGradient4705"
       osb:paint="solid">
      <stop
         style="stop-color:#c5edf3;stop-opacity:1;"
         offset="0"
         id="stop4703" />
    </linearGradient>
    <linearGradient
       id="linearGradient4699"
       osb:paint="solid">
      <stop
         style="stop-color:#fdfdfc;stop-opacity:1;"
         offset="0"
         id="stop4697" />
    </linearGradient>
    <linearGradient
       id="linearGradient4693"
       osb:paint="solid"
       gradientTransform="matrix(0.25,0,0,0.19847653,111.0719,1282.871)">
      <stop
         style="stop-color:#dc612c;stop-opacity:1;"
         offset="0"
         id="stop4691" />
    </linearGradient>
    <linearGradient
       id="linearGradient4687"
       osb:paint="solid">
      <stop
         style="stop-color:#194f6e;stop-opacity:1;"
         offset="0"
         id="stop4685" />
    </linearGradient>
    <linearGradient
       id="linearGradient4681"
       osb:paint="solid">
      <stop
         style="stop-color:#0a2b50;stop-opacity:1;"
         offset="0"
         id="stop4679" />
    </linearGradient>
    <linearGradient
       id="linearGradient4641"
       osb:paint="solid"
       gradientTransform="translate(-1241.7425,122.63987)">
      <stop
         style="stop-color:#6bb5c1;stop-opacity:1;"
         offset="0"
         id="stop4639" />
    </linearGradient>
    <linearGradient
       inkscape:collect="always"
       xlink:href="#linearGradient4723"
       id="linearGradient4725"
       x1="-877.40778"
       y1="355.29102"
       x2="-524.04974"
       y2="355.29102"
       gradientUnits="userSpaceOnUse"
       gradientTransform="translate(919.10244,222.49439)" />
  </defs>
  <sodipodi:namedview
     pagecolor="#ffffff"
     bordercolor="#666666"
     borderopacity="1"
     objecttolerance="10"
     gridtolerance="10"
     guidetolerance="10"
     inkscape:pageopacity="0"
     inkscape:pageshadow="2"
     inkscape:window-width="1920"
     inkscape:window-height="1016"
     id="namedview4"
     showgrid="false"
     fit-margin-top="0"
     fit-margin-left="0"
     fit-margin-right="0"
     fit-margin-bottom="0"
     inkscape:zoom="0.5"
     inkscape:cx="250.96284"
     inkscape:cy="267.13712"
     inkscape:window-x="1366"
     inkscape:window-y="27"
     inkscape:window-maximized="1"
     inkscape:current-layer="g3784" />
  <g
     id="g3784"
     transform="translate(81.443071,-312.98399)">
    <path
       id="path3798"
       style="fill:#ebb788"
       d="m 376.92969,82.685547 c -0.3074,0.0063 -0.61781,0.02365 -0.92969,0.05469 -17.57136,2.87024 -35.4189,3.875972 -53.26562,4.201172 -38.68276,1.02701 -77.38074,0.397551 -116.07032,0.300782 -14.02235,16.639889 -30.48707,31.127349 -43.90039,48.263669 -16.74881,26.39898 -23.06062,57.80295 -27.87305,88.25781 -0.82545,5.21216 -1.54431,13.37586 -5.3496,15.75 -2.29838,-3.99398 -7.37711,0.47852 -10.51758,1.56836 -9.53565,5.22011 -16.66654,14.73734 -19.548831,25.00195 0.308495,20.07633 -1.677129,40.34942 0.699221,60.32618 3.0059,12.16232 12.97719,20.8696 23.23828,27.16796 0.51006,-36.59778 2.88123,-73.17398 6.08789,-109.65039 11.68525,52.4706 16.70689,106.20769 28.25781,158.70899 3.70659,5.13269 9.92953,-0.40107 13.17578,-3.2793 15.26927,-14.77747 29.16573,-31.75902 48.95703,-40.6875 12.41454,-6.34677 26.94586,-6.06149 40.55665,-8.24804 39.85002,-4.31389 80.19812,-0.19035 119.09765,9.18164 21.20335,9.24036 34.32312,29.33114 52.16211,43.18554 2.93633,2.92693 8.64213,2.24065 9.29492,-2.3457 10.43427,-51.52407 15.96694,-104.23069 27.21289,-155.39648 3.60586,35.97188 6.08874,72.01626 5.77149,108.1621 10.32418,-5.28604 19.6306,-14.10575 23.48828,-25.21484 2.04582,-17.73183 0.61063,-35.72511 0.9043,-53.55273 0.7485,-8.67592 -2.1204,-17.21417 -7.91993,-23.69141 -5.50447,-6.37677 -12.99515,-11.96364 -21.36523,-13.44531 -2.27934,0.42528 -1.17978,3.72215 -3.66211,2.16601 -6.50913,-10.93059 -6.55965,-24.3354 -8.58984,-36.63672 -2.67323,-24.10847 -7.17861,-49.37224 -22.51563,-68.98437 -13.3527,-17.04935 -34.38927,-26.30755 -46.02539,-44.941404 -2.683,-3.68265 -6.76016,-6.31684 -11.37109,-6.222656 z m 9.52148,128.085933 c 16.13379,0.50366 33.45908,6.58222 43.78125,19.52344 1.17857,1.70582 3.96363,6.62569 2.23828,7.16406 -15.10139,-7.2262 -32.0647,-9.48765 -48.51172,-11.61914 -12.50895,-1.10592 -25.1638,-0.19649 -37.59765,-1.10546 10.53724,-9.82957 25.88431,-13.81342 40.08984,-13.9629 z m -170.19336,0.12305 c 13.69002,0.25551 28.09262,4.54995 38.34571,13.85352 -27.50166,0.62154 -56.4594,0.3531 -82.5625,10.95117 -2.82,1.59351 -6.12605,3.19562 -3.55079,-1.28125 7.19603,-15.23128 25.26553,-21.51865 40.89258,-23.22266 2.28457,-0.21934 4.58019,-0.31246 6.875,-0.30078 z m 82.97071,170.85742 c -0.46728,-0.0145 -0.81322,0.0725 -0.84571,0.40039 -14.12121,5.11632 -29.58202,1.64772 -44.10742,3.25391 -18.75159,8.89476 -25.5251,33.01696 -19.5,51.8418 2.62429,7.74792 9.37825,17.31869 18.65234,15.64453 12.45574,-4.35954 20.72712,-15.90787 33.02539,-20.64258 9.73236,-5.31165 21.62981,-4.31233 30.88086,1.53516 10.97889,5.13663 19.18533,15.73171 31.14844,19.08398 9.2791,1.00923 15.66335,-8.58489 18.13867,-16.38281 4.34911,-16.35373 -0.0249,-36.1113 -13.52734,-47.02149 -4.40056,-3.89633 -9.6514,-5.23018 -15.45117,-4.36718 -12.07115,-0.23314 -23.87496,0.94781 -35.45898,-3.17774 -0.55032,0.0532 -2.17629,-0.14387 -2.95508,-0.16797 z m -71.60743,127.82422 -0.38671,0.11914 c -3.6012,2.53738 -1.47595,8.31822 -2.17188,12.12305 0.8905,20.24244 -1.91123,41.88994 7.6543,60.60352 14.62412,31.82393 54.09932,49.50422 87.47265,38.46093 28.5507,-8.6809 51.53805,-35.85947 51.85157,-66.23633 0.39676,-14.38731 1.77936,-28.95759 0.25586,-43.28125 -2.21241,-4.02315 -7.29943,0.3494 -10.39063,0.97266 -16.39511,6.02917 -30.92898,16.59186 -48.07422,20.35352 -16.92782,2.26928 -35.38786,0.82027 -50.48047,-8.15625 -11.80784,-5.14119 -23.30741,-11.49387 -35.73047,-14.95899 z"
       transform="translate(-81.443071,312.98399)"
       inkscape:connector-curvature="0"
       sodipodi:nodetypes="ccccccccccccccccccccccccccccccccccccccccccccccccccccccccccccccccccc" />
    <path
       id="path3790"
       style="fill:url(#linearGradient4723)"
       d="m 131.1077,523.75147 c -4.7464,0.0373 -9.26078,0.46522 -12.83008,1.3125 -9.2095,2.1861 -20.465721,7.63535 -26.203121,12.68555 -4.5534,4.008 -8.59571,10.88439 -8.59571,14.62109 v 2.11329 l 4.25,-2.35157 c 12.2058,-6.75532 41.402601,-11.84636 68.500001,-11.94336 10.0375,-0.0358 18.25,-0.32402 18.25,-0.64062 -2e-4,-2.4452 -12.3841,-10.04633 -21,-12.89063 -5.9038,-1.94888 -14.46029,-2.96839 -22.37109,-2.90625 z m 173.9004,0.004 c -7.9361,-0.0409 -16.7621,0.9871 -22.5293,2.89648 -9.1142,3.0174 -21.00001,10.46737 -21.00001,13.16407 0,0.4639 4.83748,0.55306 10.75001,0.19726 23.02,-1.3852 65.6002,5.51375 76.75,12.43555 2.4368,1.5128 3.0632,1.59878 3.3359,0.45508 0.6398,-2.6828 -4.9527,-12.24065 -9.1972,-15.71875 -5.3552,-4.3881 -17.2247,-10.01841 -25.6387,-12.16211 -3.2676,-0.8325 -7.7091,-1.24302 -12.4707,-1.26758 z"
       inkscape:connector-curvature="0" />
    <path
       style="fill:url(#linearGradient4725);fill-opacity:1"
       d="m 207.91615,846.53903 c -8.0309,-0.93058 -10.9445,-1.97914 -29.8333,-10.7366 -8.8916,-4.12248 -24.7227,-10.75265 -35.1801,-14.73372 -25.1781,-9.58515 -36.8791,-14.78624 -46.787504,-20.79711 -30.1402,-18.2843 -43.899,-44.88112 -50.6253,-97.86208 -3.7109,-29.22994 -4.4552,-46.05478 -3.1542,-71.30324 1.7105,-33.19826 3.9722,-65.10399 5.1318,-72.39339 0.8269,-5.19781 0.7419,-6.55453 -0.4873,-7.78374 -0.8188,-0.81879 -1.9562,-3.16102 -2.5276,-5.20496 -1.8132,-6.48581 -3.2788,-36.99468 -2.5804,-53.71626 2.9934,-71.67143 20.4485,-109.92431 63.205704,-138.51548 17.5852,-11.75896 31.4554,-17.76184 50.3949,-21.81045 9.14,-1.9538 15.0125,-2.74778 53.4433,-7.22566 28.8868,-3.36583 43.2541,-6.82505 56.7493,-13.66357 11.1278,-5.63888 13.9997,-2.06268 7.2908,9.07867 -4.0469,6.72046 -3.5435,6.77064 7.2767,0.72549 8.7438,-4.88502 12.4774,-6.32617 15.3383,-5.92039 1.9891,0.28214 2.3048,0.83739 2.0807,3.65928 -0.1454,1.82968 -0.9661,4.68372 -1.8238,6.34233 -0.8577,1.6586 -1.3786,3.19644 -1.1576,3.41742 0.5332,0.53324 16.4662,-4.87465 20.4853,-6.95303 3.9438,-2.03939 7.6347,-2.09335 9.2597,-0.13536 1.3565,1.63452 0.8605,4.11388 -2.9389,14.69061 -1.1241,3.12942 -1.7712,6.40038 -1.438,7.26879 0.3333,0.86841 7.4136,6.85797 15.7341,13.31013 25.6524,19.8923 35.0084,30.84409 43.0552,50.39867 7.5938,18.45372 11.0776,38.33278 12.676,72.33255 1.1079,23.56549 0.9419,28.21525 -1.7488,49 -1.5874,12.2625 -1.4445,22.36464 0.5871,41.5 0.5548,5.225 1.4632,17.15 2.0187,26.5 0.5556,9.35 1.5179,25.55 2.1386,36 1.5246,25.66925 -0.074,51.62209 -5.1443,83.5 -7.8199,49.16726 -24.9173,74.39878 -62.3189,91.96721 -5.5661,2.61454 -11.0202,5.087 -12.1202,5.49435 -23.0755,8.54535 -43.3533,16.92735 -56.9266,23.53118 -21.7054,10.56032 -30.4463,12.31264 -50.0734,10.03836 z m -30.6157,-85.10176 c 1.8613,-1.13475 7.1468,-4.93415 11.7455,-8.44308 4.5988,-3.50894 11.4009,-7.86632 15.1158,-9.68307 6.1193,-2.99258 7.6007,-3.30319 15.7544,-3.30319 8.1383,0 9.6411,0.31355 15.695,3.27482 3.6822,1.80113 9.3072,5.31357 12.5,7.80539 17.5507,13.69758 22.2848,15.14322 29.1826,8.91142 12.6568,-11.43463 11.7663,-39.85655 -1.6864,-53.82405 -6.5201,-6.76961 -7.6322,-7.06859 -28.6912,-7.71358 -14.7869,-0.45289 -19.8748,-0.96255 -22.9451,-2.29847 -3.7201,-1.61863 -4.1764,-1.61934 -8,-0.0124 -3.1267,1.31407 -8.4039,1.83607 -23.0549,2.2805 -18.3914,0.55791 -19.1486,0.66376 -23.6416,3.305 -5.1805,3.04548 -9.67,9.13233 -13.0298,17.66609 -1.7585,4.46651 -2.2192,7.73846 -2.2677,16.10528 -0.055,9.53412 0.1958,11.02264 2.7292,16.1816 5.3773,10.95009 12.8333,14.47917 20.5942,9.74774 z M 85.393246,713.40066 c 2.0622,-1.159 9.5012,-8.16812 16.531204,-15.57581 17.9332,-18.89669 31.5948,-27.93141 53.1525,-35.15106 22.8913,-7.66627 42.8382,-8.69258 58.0837,-2.98852 5.2256,1.95514 5.2855,1.95514 10.5111,0 15.2446,-5.70372 35.1871,-4.678 58.0837,2.98749 21.5971,7.23038 32.9369,14.75751 53.3203,35.39255 15.6598,15.85325 20.0721,19.11091 22.5409,16.64217 1.7336,-1.73367 7.5457,-33.99337 16.7914,-93.19955 3.9198,-25.10162 11.0736,-63.44193 12.55,-67.26134 0.5085,-1.31574 0.292,-1.61214 -0.8561,-1.17158 -4.1658,1.59856 -7.7578,-10.73356 -11.2069,-38.47491 -5.9786,-48.08815 -13.7806,-64.16339 -42.0435,-86.62659 -13.4545,-10.69359 -18.1682,-15.36806 -25.6793,-25.46559 -5.1657,-6.94432 -7.3402,-7.62007 -18.199,-5.65553 -4.9814,0.9012 -17.1571,2.11921 -27.0571,2.70668 -18.7454,1.11236 -123.8889,1.39002 -130.4276,0.34442 -3.6858,-0.58938 -3.8697,-0.45721 -12.1574,8.73839 -4.6282,5.13524 -13.8482,14.96839 -20.488904,21.85142 -6.6406,6.88304 -13.502,14.61907 -15.2475,17.19117 -11.8304,17.43316 -23.8863,54.67504 -27.1949,84.008 -1.3195,11.69815 -2.5707,16.40251 -5.0117,18.84345 -1.8966,1.89667 -1.8899,2.06728 0.4995,12.69725 3.4029,15.13907 6.7425,34.11429 12.0161,68.27475 6.0106,38.9336 13.5573,81.18696 14.7797,82.75 1.3411,1.71472 2.3667,1.58368 6.7098,-0.85726 z"
       id="path3788"
       inkscape:connector-curvature="0" />
    <path
       style="fill:url(#linearGradient4687);fill-opacity:1"
       d="m 116.85547,811.41797 c -19.975855,4.70478 -40.872257,11.99078 -54.990236,27.60937 -8.058971,9.1182 -12.074906,21.12567 -12.996093,33.125 -67.453182,29.0702 -118.866388,93.82768 -128.932847,166.94356 -2.905552,20.4998 -2.697181,41.2565 -3.436294,61.9021 H 109.875 V 946.58984 c 5.6666,2.90703 11.33329,5.81389 17,8.72071 V 1100.998 h 394.00195 c 0.75856,-37.6932 -1.80596,-76.3909 -16.89453,-111.44527 -21.00949,-51.02331 -61.90396,-93.74451 -112.38867,-116.21289 -5.35561,-2.17508 -3.12659,-9.26405 -5.32304,-13.59736 -3.71717,-17.40973 -17.64609,-30.49943 -33.41524,-37.55889 -10.47638,-4.50438 -21.38613,-9.97075 -32.98242,-10.01757 -10.40904,2.9895 -20.33585,7.41243 -30.47071,11.1875 -0.91989,19.7826 0.29251,39.71041 -2.38086,59.33007 -7.12746,26.24355 -30.13559,47.67925 -57.26632,51.60506 -23.16125,3.59958 -47.91826,-4.91201 -63.42313,-22.7906 -11.15714,-12.50505 -18.05836,-29.12287 -17.11081,-46.00307 -0.35152,-14.09981 -0.57775,-28.2025 -0.87356,-42.30357 -10.58021,-3.59587 -21.00635,-8.46393 -31.49219,-11.77344 z m 211.01953,194.63283 0.75,36.5888 c -2.95269,5.5378 -12.89828,7.4072 -16.87228,2.2145 -3.63575,-4.5887 -1.13898,-34.9248 -2.11516,-40.6151 l 1.23744,-48.92845 c 5.66671,-2.90682 11.3334,-5.81368 17,-8.72071 z"
       id="path3786"
       inkscape:connector-curvature="0"
       sodipodi:nodetypes="ccccccccccccccccccccccccccccc" />
    <path
       style="fill:url(#linearGradient4693);fill-opacity:1;stroke-width:0.62851846"
       d="m 328.21318,942.17929 c -7.02502,2.63432 -13.82715,5.63053 -20.74805,8.43155 0,30.81018 0,61.62036 0,92.43056 3.8726,4.1492 10.99762,7.0394 17.23242,4.2729 4.24472,-1.8414 8.07791,-4.7839 6.56641,-8.9577 -0.1297,-31.6673 0.29582,-63.34908 -0.35937,-95.00763 -0.33424,-2.15754 -0.17459,-2.04493 -2.69141,-1.16968 z"
       id="path4923"
       inkscape:connector-curvature="0" />
    <path
       style="fill:url(#linearGradient4693);fill-opacity:1;stroke-width:0.35441047"
       d="m 106.06641,943.57617 c -0.40059,52.45068 -0.15132,104.90663 -0.22461,157.35933 8.28646,0 16.57291,0 24.85937,0 -0.004,-49.3307 -0.008,-98.6614 -0.01,-147.99214 -8.17907,-4.02177 -16.08654,-8.62724 -24.47266,-12.21289 -0.0508,0.94857 -0.10156,1.89713 -0.15234,2.8457 z"
       id="path4927"
       inkscape:connector-curvature="0" />
  </g>
  <g
     id="g4645"
     transform="translate(-3319.7575,27.226773)" />
</svg>
