<?xml version="1.0" encoding="UTF-8" standalone="no"?>
<!-- Created with Inkscape (http://www.inkscape.org/) -->

<svg
   xmlns:dc="http://purl.org/dc/elements/1.1/"
   xmlns:cc="http://creativecommons.org/ns#"
   xmlns:rdf="http://www.w3.org/1999/02/22-rdf-syntax-ns#"
   xmlns:svg="http://www.w3.org/2000/svg"
   xmlns="http://www.w3.org/2000/svg"
   xmlns:sodipodi="http://sodipodi.sourceforge.net/DTD/sodipodi-0.dtd"
   xmlns:inkscape="http://www.inkscape.org/namespaces/inkscape"
   width="150"
   height="28.61179"
   viewBox="0 0 39.687502 7.5702026"
   version="1.1"
   id="svg829"
   inkscape:version="0.92.5 (2060ec1f9f, 2020-04-08)"
   sodipodi:docname="starLine50.svg">
  <defs
     id="defs823" />
  <sodipodi:namedview
     id="base"
     pagecolor="#ffffff"
     bordercolor="#666666"
     borderopacity="1.0"
     inkscape:pageopacity="0.0"
     inkscape:pageshadow="2"
     inkscape:zoom="3.959798"
     inkscape:cx="89.387685"
     inkscape:cy="16.454412"
     inkscape:document-units="mm"
     inkscape:current-layer="layer1"
     showgrid="false"
     fit-margin-top="0"
     fit-margin-left="0"
     fit-margin-right="0"
     fit-margin-bottom="0"
     inkscape:window-width="1920"
     inkscape:window-height="1016"
     inkscape:window-x="0"
     inkscape:window-y="27"
     inkscape:window-maximized="1"
     units="px" />
  <metadata
     id="metadata826">
    <rdf:RDF>
      <cc:Work
         rdf:about="">
        <dc:format>image/svg+xml</dc:format>
        <dc:type
           rdf:resource="http://purl.org/dc/dcmitype/StillImage" />
        <dc:title></dc:title>
      </cc:Work>
    </rdf:RDF>
  </metadata>
  <g
     inkscape:label="Layer 1"
     inkscape:groupmode="layer"
     id="layer1"
     transform="translate(-24.59373,-30.450793)">
    <path
       style="opacity:0.97000002;fill:#dc612c;fill-opacity:1;stroke:#194e6d;stroke-width:0.041891;stroke-miterlimit:4;stroke-dasharray:none;stroke-opacity:1"
       d="m 11.385509,34.124512 v 1.281099 h 26.766868 v -1.281099 z m 39.337074,0 v 1.281099 h 26.766868 v -1.281099 z"
       id="rect1384"
       inkscape:connector-curvature="0" />
    <text
       xml:space="preserve"
       style="font-style:normal;font-variant:normal;font-weight:normal;font-stretch:normal;font-size:50.79999924px;line-height:1.25;font-family:'Sketch Rockwell';-inkscape-font-specification:'Sketch Rockwell';letter-spacing:0px;word-spacing:0px;fill:#000000;fill-opacity:1;stroke:none;stroke-width:0.26458332"
       x="41.493595"
       y="16.701082"
       id="text1391"><tspan
         sodipodi:role="line"
         id="tspan1389"
         x="41.493595"
         y="61.151081"
         style="font-style:normal;font-variant:normal;font-weight:normal;font-stretch:normal;font-family:FontAwesome;-inkscape-font-specification:FontAwesome;stroke-width:0.26458332" /><tspan
         sodipodi:role="line"
         x="41.493595"
         y="124.65108"
         style="font-style:normal;font-variant:normal;font-weight:normal;font-stretch:normal;font-family:FontAwesome;-inkscape-font-specification:FontAwesome;stroke-width:0.26458332"
         id="tspan1393" /></text>
    <text
       xml:space="preserve"
       style="font-style:normal;font-variant:normal;font-weight:normal;font-stretch:normal;font-size:50.79999924px;line-height:1.25;font-family:font;-inkscape-font-specification:font;letter-spacing:0px;word-spacing:0px;fill:#000000;fill-opacity:1;stroke:none;stroke-width:0.26458332"
       x="28.890882"
       y="73.035049"
       id="text821"><tspan
         sodipodi:role="line"
         id="tspan819"
         x="28.890882"
         y="117.98114"
         style="stroke-width:0.26458332" /></text>
    <path
       id="path823"
       d="m 48.406134,33.384434 c 0,0.06996 -0.04136,0.146281 -0.12402,0.228965 l -1.731557,1.688627 0.410234,2.385069 c 0.0032,0.02226 0.0048,0.05406 0.0048,0.0954 0,0.06678 -0.0166,0.123221 -0.05008,0.169341 -0.03338,0.04612 -0.0819,0.06916 -0.14548,0.06916 -0.06042,0 -0.124021,-0.0192 -0.190801,-0.05724 l -2.141792,-1.125748 -2.14179,1.125748 c -0.06996,0.03816 -0.133561,0.05724 -0.190801,0.05724 -0.06678,0 -0.11686,-0.02308 -0.15026,-0.06916 -0.0334,-0.04612 -0.0501,-0.102561 -0.0501,-0.169341 0,-0.0192 0.0032,-0.05088 0.0096,-0.0954 l 0.410232,-2.385069 -1.736329,-1.688627 c -0.0795,-0.08586 -0.11926,-0.16218 -0.11926,-0.228965 0,-0.11768 0.08904,-0.1908 0.267129,-0.21943 l 2.394607,-0.348218 1.073278,-2.170412 c 0.06042,-0.13038 0.138341,-0.195581 0.233739,-0.195581 0.0954,0 0.173321,0.0652 0.233737,0.195581 l 1.073278,2.170412 2.394607,0.348218 c 0.178081,0.02862 0.267125,0.10176 0.267125,0.21943 z"
       inkscape:connector-curvature="0"
       style="fill:#194e6d;fill-opacity:1;stroke-width:0.01164168;stroke-miterlimit:4;stroke-dasharray:none" />
  </g>
</svg>
